<?xml version="1.0" encoding="utf-8" ?>
<svg viewBox="0 0 1247 186" baseProfile="full" height="186" version="1.1" width="1247" xmlns="http://www.w3.org/2000/svg" xmlns:ev="http://www.w3.org/2001/xml-events" xmlns:xlink="http://www.w3.org/1999/xlink"><defs><marker id="arrow" markerHeight="3.5" markerWidth="5" orient="auto" refX="5.0" refY="1.7"><polygon points="0,0 5,1.75 0,3.5" /></marker></defs><g style="fill:white;"><g transform="matrix(1.0, 0.0, 0.0, 1.0, 623.9999999999999, 93.0)"><g transform="matrix(28.57142857142857, 0.0, 0.0, 28.57142857142857, 0.0, 0.0)"><g><g transform="matrix(1.0, 0.0, 0.0, 1.0, -19.6, -0.5)"><g><g style="fill: #ffffff;stroke: black;stroke-width: 0.0;" transform="matrix(1.0, 0.0, 0.0, 1.0, -1.1999999999999957, -2.6)"><path d="M 0.0 0.0 L 41.599999999999994 0.0 L 41.599999999999994 6.2 L 0.0 6.2 L 0.0 0.0 Z" style="vector-effect: non-scaling-stroke;" /></g><g transform="matrix(1.0, 0.0, 0.0, 1.0, 0.0, 0.0)"><g><g style="fill: #c3c2b7;stroke: black;stroke-width: 1.2000000000000002;fill-opacity: 1.0;stroke-dasharray: ;" transform="matrix(1.0, 0.0, 0.0, 1.0, -0.5, -0.5)"><path d="M 0.0 0.0 L 1.0 0.0 L 1.0 1.0 L 0.0 1.0 L 0.0 0.0 Z" style="vector-effect: non-scaling-stroke;" /></g><g style="fill: #000000;stroke: black;stroke-width: 0.0;stroke-dasharray: ;" transform="matrix(1.0, 0.0, 0.0, 1.0, 0.0, 0.0)"><text style="text-align:center; text-anchor:middle; dominant-baseline:middle;&#10;                      font-family:sans-serif; font-weight: bold;&#10;                      font-size:0.28px;&#10;                      vector-effect: non-scaling-stroke;" transform="translate(-5e-05, 0)">C</text></g><g transform="matrix(1.0, 0.0, 0.0, 1.0, 0.5, 0.0)"><g transform="matrix(1.0, -0.0, 0.0, 1.0, 0.0, 0.0)"><g /></g></g><g transform="matrix(1.0, 0.0, 0.0, 1.0, 1.0, 0.0)"><g><g style="fill: #86b6ef;stroke: black;stroke-width: 1.2000000000000002;fill-opacity: 1.0;stroke-dasharray: ;" transform="matrix(1.0, 0.0, 0.0, 1.0, -0.5, -0.5)"><path d="M 0.0 0.0 L 1.0 0.0 L 1.0 1.0 L 0.0 1.0 L 0.0 0.0 Z" style="vector-effect: non-scaling-stroke;" /></g><g style="fill: #000000;stroke: black;stroke-width: 0.0;stroke-dasharray: ;" transform="matrix(1.0, 0.0, 0.0, 1.0, 0.0, 0.0)"><text style="text-align:center; text-anchor:middle; dominant-baseline:middle;&#10;                      font-family:sans-serif; font-weight: bold;&#10;                      font-size:0.28px;&#10;                      vector-effect: non-scaling-stroke;" transform="translate(-5e-05, 0)">ch</text></g><g transform="matrix(1.0, 0.0, 0.0, 1.0, 0.5, 0.0)"><g transform="matrix(1.0, -0.0, 0.0, 1.0, 0.0, 0.0)"><g /></g></g><g transform="matrix(1.0, 0.0, 0.0, 1.0, 1.0, 0.0)"><g><g style="fill: #86b6ef;stroke: black;stroke-width: 1.2000000000000002;fill-opacity: 1.0;stroke-dasharray: ;" transform="matrix(1.0, 0.0, 0.0, 1.0, -0.5, -0.5)"><path d="M 0.0 0.0 L 1.0 0.0 L 1.0 1.0 L 0.0 1.0 L 0.0 0.0 Z" style="vector-effect: non-scaling-stroke;" /></g><g style="fill: #000000;stroke: black;stroke-width: 0.0;stroke-dasharray: ;" transform="matrix(1.0, 0.0, 0.0, 1.0, 0.0, 0.0)"><text style="text-align:center; text-anchor:middle; dominant-baseline:middle;&#10;                      font-family:sans-serif; font-weight: bold;&#10;                      font-size:0.28px;&#10;                      vector-effect: non-scaling-stroke;" transform="translate(-5e-05, 0)">o</text></g></g></g><g transform="matrix(1.0, 0.0, 0.0, 1.0, 1.5, 0.0)"><g transform="matrix(1.0, -0.0, 0.0, 1.0, 0.0, 0.0)"><g /></g></g><g transform="matrix(1.0, 0.0, 0.0, 1.0, 2.0, 0.0)"><g><g style="fill: #86b6ef;stroke: black;stroke-width: 1.2000000000000002;fill-opacity: 1.0;stroke-dasharray: ;" transform="matrix(1.0, 0.0, 0.0, 1.0, -0.5, -0.5)"><path d="M 0.0 0.0 L 1.0 0.0 L 1.0 1.0 L 0.0 1.0 L 0.0 0.0 Z" style="vector-effect: non-scaling-stroke;" /></g><g style="fill: #000000;stroke: black;stroke-width: 0.0;stroke-dasharray: ;" transform="matrix(1.0, 0.0, 0.0, 1.0, 0.0, 0.0)"><text style="text-align:center; text-anchor:middle; dominant-baseline:middle;&#10;                      font-family:sans-serif; font-weight: bold;&#10;                      font-size:0.28px;&#10;                      vector-effect: non-scaling-stroke;" transform="translate(-5e-05, 0)">ice</text></g><g transform="matrix(1.0, 0.0, 0.0, 1.0, 0.5, 0.0)"><g transform="matrix(1.0, -0.0, 0.0, 1.0, 0.0, 0.0)"><g /></g></g><g transform="matrix(1.0, 0.0, 0.0, 1.0, 1.0, 0.0)"><g><g style="fill: #86b6ef;stroke: black;stroke-width: 1.2000000000000002;fill-opacity: 1.0;stroke-dasharray: ;" transform="matrix(1.0, 0.0, 0.0, 1.0, -0.5, -0.5)"><path d="M 0.0 0.0 L 1.0 0.0 L 1.0 1.0 L 0.0 1.0 L 0.0 0.0 Z" style="vector-effect: non-scaling-stroke;" /></g><g style="fill: #000000;stroke: black;stroke-width: 0.0;stroke-dasharray: ;" transform="matrix(1.0, 0.0, 0.0, 1.0, 0.0, 0.0)"><text style="text-align:center; text-anchor:middle; dominant-baseline:middle;&#10;                      font-family:sans-serif; font-weight: bold;&#10;                      font-size:0.28px;&#10;                      vector-effect: non-scaling-stroke;" transform="translate(-5e-05, 0)">que</text></g></g></g></g></g><g transform="matrix(1.0, 0.0, 0.0, 1.0, 3.5, 0.0)"><g transform="matrix(1.0, -0.0, 0.0, 1.0, 0.0, 0.0)"><g /></g></g><g transform="matrix(1.0, 0.0, 0.0, 1.0, 4.0, 0.0)"><g><g style="fill: #86b6ef;stroke: black;stroke-width: 1.2000000000000002;fill-opacity: 1.0;stroke-dasharray: ;" transform="matrix(1.0, 0.0, 0.0, 1.0, -0.5, -0.5)"><path d="M 0.0 0.0 L 1.0 0.0 L 1.0 1.0 L 0.0 1.0 L 0.0 0.0 Z" style="vector-effect: non-scaling-stroke;" /></g><g style="fill: #000000;stroke: black;stroke-width: 0.0;stroke-dasharray: ;" transform="matrix(1.0, 0.0, 0.0, 1.0, 0.0, 0.0)"><text style="text-align:center; text-anchor:middle; dominant-baseline:middle;&#10;                      font-family:sans-serif; font-weight: bold;&#10;                      font-size:0.28px;&#10;                      vector-effect: non-scaling-stroke;" transform="translate(-5e-05, 0)">s</text></g><g transform="matrix(1.0, 0.0, 0.0, 1.0, 0.5, 0.0)"><g transform="matrix(1.0, -0.0, 0.0, 1.0, 0.0, 0.0)"><g /></g></g><g transform="matrix(1.0, 0.0, 0.0, 1.0, 1.0, 0.0)"><g><g style="fill: #86b6ef;stroke: black;stroke-width: 1.2000000000000002;fill-opacity: 1.0;stroke-dasharray: ;" transform="matrix(1.0, 0.0, 0.0, 1.0, -0.5, -0.5)"><path d="M 0.0 0.0 L 1.0 0.0 L 1.0 1.0 L 0.0 1.0 L 0.0 0.0 Z" style="vector-effect: non-scaling-stroke;" /></g><g style="fill: #000000;stroke: black;stroke-width: 0.0;stroke-dasharray: ;" transform="matrix(1.0, 0.0, 0.0, 1.0, 0.0, 0.0)"><text style="text-align:center; text-anchor:middle; dominant-baseline:middle;&#10;                      font-family:sans-serif; font-weight: bold;&#10;                      font-size:0.28px;&#10;                      vector-effect: non-scaling-stroke;" transform="translate(-5e-05, 0)">tion</text></g></g></g><g transform="matrix(1.0, 0.0, 0.0, 1.0, 1.5, 0.0)"><g transform="matrix(1.0, -0.0, 0.0, 1.0, 0.0, 0.0)"><g /></g></g><g transform="matrix(1.0, 0.0, 0.0, 1.0, 2.0, 0.0)"><g><g style="fill: #86b6ef;stroke: black;stroke-width: 1.2000000000000002;fill-opacity: 1.0;stroke-dasharray: ;" transform="matrix(1.0, 0.0, 0.0, 1.0, -0.5, -0.5)"><path d="M 0.0 0.0 L 1.0 0.0 L 1.0 1.0 L 0.0 1.0 L 0.0 0.0 Z" style="vector-effect: non-scaling-stroke;" /></g><g style="fill: #000000;stroke: black;stroke-width: 0.0;stroke-dasharray: ;" transform="matrix(1.0, 0.0, 0.0, 1.0, 0.0, 0.0)"><text style="text-align:center; text-anchor:middle; dominant-baseline:middle;&#10;                      font-family:sans-serif; font-weight: bold;&#10;                      font-size:0.28px;&#10;                      vector-effect: non-scaling-stroke;" transform="translate(-5e-05, 0)">:</text></g><g transform="matrix(1.0, 0.0, 0.0, 1.0, 0.5, 0.0)"><g transform="matrix(1.0, -0.0, 0.0, 1.0, 0.0, 0.0)"><g /></g></g><g transform="matrix(1.0, 0.0, 0.0, 1.0, 1.0, 0.0)"><g><g style="fill: #86b6ef;stroke: black;stroke-width: 1.2000000000000002;fill-opacity: 1.0;stroke-dasharray: ;" transform="matrix(1.0, 0.0, 0.0, 1.0, -0.5, -0.5)"><path d="M 0.0 0.0 L 1.0 0.0 L 1.0 1.0 L 0.0 1.0 L 0.0 0.0 Z" style="vector-effect: non-scaling-stroke;" /></g><g style="fill: #000000;stroke: black;stroke-width: 0.0;stroke-dasharray: ;" transform="matrix(1.0, 0.0, 0.0, 1.0, 0.0, 0.0)"><text style="text-align:center; text-anchor:middle; dominant-baseline:middle;&#10;                      font-family:sans-serif; font-weight: bold;&#10;                      font-size:0.28px;&#10;                      vector-effect: non-scaling-stroke;" transform="translate(-5e-05, 0)">W</text></g></g></g></g></g></g></g><g transform="matrix(1.0, 0.0, 0.0, 1.0, 7.5, 0.0)"><g transform="matrix(1.0, -0.0, 0.0, 1.0, 0.0, 0.0)"><g /></g></g><g transform="matrix(1.0, 0.0, 0.0, 1.0, 8.0, 0.0)"><g><g style="fill: #86b6ef;stroke: black;stroke-width: 1.2000000000000002;fill-opacity: 1.0;stroke-dasharray: ;" transform="matrix(1.0, 0.0, 0.0, 1.0, -0.5, -0.5)"><path d="M 0.0 0.0 L 1.0 0.0 L 1.0 1.0 L 0.0 1.0 L 0.0 0.0 Z" style="vector-effect: non-scaling-stroke;" /></g><g style="fill: #000000;stroke: black;stroke-width: 0.0;stroke-dasharray: ;" transform="matrix(1.0, 0.0, 0.0, 1.0, 0.0, 0.0)"><text style="text-align:center; text-anchor:middle; dominant-baseline:middle;&#10;                      font-family:sans-serif; font-weight: bold;&#10;                      font-size:0.28px;&#10;                      vector-effect: non-scaling-stroke;" transform="translate(-5e-05, 0)">h</text></g><g transform="matrix(1.0, 0.0, 0.0, 1.0, 0.5, 0.0)"><g transform="matrix(1.0, -0.0, 0.0, 1.0, 0.0, 0.0)"><g /></g></g><g transform="matrix(1.0, 0.0, 0.0, 1.0, 1.0, 0.0)"><g><g style="fill: #86b6ef;stroke: black;stroke-width: 1.2000000000000002;fill-opacity: 1.0;stroke-dasharray: ;" transform="matrix(1.0, 0.0, 0.0, 1.0, -0.5, -0.5)"><path d="M 0.0 0.0 L 1.0 0.0 L 1.0 1.0 L 0.0 1.0 L 0.0 0.0 Z" style="vector-effect: non-scaling-stroke;" /></g><g style="fill: #000000;stroke: black;stroke-width: 0.0;stroke-dasharray: ;" transform="matrix(1.0, 0.0, 0.0, 1.0, 0.0, 0.0)"><text style="text-align:center; text-anchor:middle; dominant-baseline:middle;&#10;                      font-family:sans-serif; font-weight: bold;&#10;                      font-size:0.28px;&#10;                      vector-effect: non-scaling-stroke;" transform="translate(-5e-05, 0)">ich</text></g></g></g><g transform="matrix(1.0, 0.0, 0.0, 1.0, 1.5, 0.0)"><g transform="matrix(1.0, -0.0, 0.0, 1.0, 0.0, 0.0)"><g /></g></g><g transform="matrix(1.0, 0.0, 0.0, 1.0, 2.0, 0.0)"><g><g style="fill: #86b6ef;stroke: black;stroke-width: 1.2000000000000002;fill-opacity: 1.0;stroke-dasharray: ;" transform="matrix(1.0, 0.0, 0.0, 1.0, -0.5, -0.5)"><path d="M 0.0 0.0 L 1.0 0.0 L 1.0 1.0 L 0.0 1.0 L 0.0 0.0 Z" style="vector-effect: non-scaling-stroke;" /></g><g style="fill: #000000;stroke: black;stroke-width: 0.0;stroke-dasharray: ;" transform="matrix(1.0, 0.0, 0.0, 1.0, 0.0, 0.0)"><text style="text-align:center; text-anchor:middle; dominant-baseline:middle;&#10;                      font-family:sans-serif; font-weight: bold;&#10;                      font-size:0.28px;&#10;                      vector-effect: non-scaling-stroke;" transform="translate(-5e-05, 0)">te</text></g><g transform="matrix(1.0, 0.0, 0.0, 1.0, 0.5, 0.0)"><g transform="matrix(1.0, -0.0, 0.0, 1.0, 0.0, 0.0)"><g /></g></g><g transform="matrix(1.0, 0.0, 0.0, 1.0, 1.0, 0.0)"><g><g style="fill: #86b6ef;stroke: black;stroke-width: 1.2000000000000002;fill-opacity: 1.0;stroke-dasharray: ;" transform="matrix(1.0, 0.0, 0.0, 1.0, -0.5, -0.5)"><path d="M 0.0 0.0 L 1.0 0.0 L 1.0 1.0 L 0.0 1.0 L 0.0 0.0 Z" style="vector-effect: non-scaling-stroke;" /></g><g style="fill: #000000;stroke: black;stroke-width: 0.0;stroke-dasharray: ;" transform="matrix(1.0, 0.0, 0.0, 1.0, 0.0, 0.0)"><text style="text-align:center; text-anchor:middle; dominant-baseline:middle;&#10;                      font-family:sans-serif; font-weight: bold;&#10;                      font-size:0.28px;&#10;                      vector-effect: non-scaling-stroke;" transform="translate(-5e-05, 0)">am</text></g></g></g></g></g><g transform="matrix(1.0, 0.0, 0.0, 1.0, 3.5, 0.0)"><g transform="matrix(1.0, -0.0, 0.0, 1.0, 0.0, 0.0)"><g /></g></g><g transform="matrix(1.0, 0.0, 0.0, 1.0, 4.0, 0.0)"><g><g style="fill: #c3c2b7;stroke: black;stroke-width: 1.2000000000000002;fill-opacity: 1.0;stroke-dasharray: ;" transform="matrix(1.0, 0.0, 0.0, 1.0, -0.5, -0.5)"><path d="M 0.0 0.0 L 1.0 0.0 L 1.0 1.0 L 0.0 1.0 L 0.0 0.0 Z" style="vector-effect: non-scaling-stroke;" /></g><g style="fill: #000000;stroke: black;stroke-width: 0.0;stroke-dasharray: ;" transform="matrix(1.0, 0.0, 0.0, 1.0, 0.0, 0.0)"><text style="text-align:center; text-anchor:middle; dominant-baseline:middle;&#10;                      font-family:sans-serif; font-weight: bold;&#10;                      font-size:0.28px;&#10;                      vector-effect: non-scaling-stroke;" transform="translate(-5e-05, 0)">S</text></g><g transform="matrix(1.0, 0.0, 0.0, 1.0, 0.5, 0.0)"><g transform="matrix(1.0, -0.0, 0.0, 1.0, 0.0, 0.0)"><g /></g></g><g transform="matrix(1.0, 0.0, 0.0, 1.0, 1.0, 0.0)"><g><g style="fill: #eb6834;stroke: black;stroke-width: 1.2000000000000002;fill-opacity: 1.0;stroke-dasharray: ;" transform="matrix(1.0, 0.0, 0.0, 1.0, -0.5, -0.5)"><path d="M 0.0 0.0 L 1.0 0.0 L 1.0 1.0 L 0.0 1.0 L 0.0 0.0 Z" style="vector-effect: non-scaling-stroke;" /></g><g style="fill: #000000;stroke: black;stroke-width: 0.0;stroke-dasharray: ;" transform="matrix(1.0, 0.0, 0.0, 1.0, 0.0, 0.0)"><text style="text-align:center; text-anchor:middle; dominant-baseline:middle;&#10;                      font-family:sans-serif; font-weight: bold;&#10;                      font-size:0.28px;&#10;                      vector-effect: non-scaling-stroke;" transform="translate(-5e-05, 0)">M</text></g></g></g><g transform="matrix(1.0, 0.0, 0.0, 1.0, 1.5, 0.0)"><g transform="matrix(1.0, -0.0, 0.0, 1.0, 0.0, 0.0)"><g /></g></g><g transform="matrix(1.0, 0.0, 0.0, 1.0, 2.0, 0.0)"><g><g style="fill: #f4b89b;stroke: black;stroke-width: 1.2000000000000002;fill-opacity: 1.0;stroke-dasharray: ;" transform="matrix(1.0, 0.0, 0.0, 1.0, -0.5, -0.5)"><path d="M 0.0 0.0 L 1.0 0.0 L 1.0 1.0 L 0.0 1.0 L 0.0 0.0 Z" style="vector-effect: non-scaling-stroke;" /></g><g style="fill: #000000;stroke: black;stroke-width: 0.0;stroke-dasharray: ;" transform="matrix(1.0, 0.0, 0.0, 1.0, 0.0, 0.0)"><text style="text-align:center; text-anchor:middle; dominant-baseline:middle;&#10;                      font-family:sans-serif; font-weight: bold;&#10;                      font-size:0.28px;&#10;                      vector-effect: non-scaling-stroke;" transform="translate(-5e-05, 0)">bill</text></g><g transform="matrix(1.0, 0.0, 0.0, 1.0, 0.5, 0.0)"><g transform="matrix(1.0, -0.0, 0.0, 1.0, 0.0, 0.0)"><g /></g></g><g transform="matrix(1.0, 0.0, 0.0, 1.0, 1.0, 0.0)"><g><g style="fill: #f4b89b;stroke: black;stroke-width: 1.2000000000000002;fill-opacity: 1.0;stroke-dasharray: ;" transform="matrix(1.0, 0.0, 0.0, 1.0, -0.5, -0.5)"><path d="M 0.0 0.0 L 1.0 0.0 L 1.0 1.0 L 0.0 1.0 L 0.0 0.0 Z" style="vector-effect: non-scaling-stroke;" /></g><g style="fill: #000000;stroke: black;stroke-width: 0.0;stroke-dasharray: ;" transform="matrix(1.0, 0.0, 0.0, 1.0, 0.0, 0.0)"><text style="text-align:center; text-anchor:middle; dominant-baseline:middle;&#10;                      font-family:sans-serif; font-weight: bold;&#10;                      font-size:0.28px;&#10;                      vector-effect: non-scaling-stroke;" transform="translate(-5e-05, 0)">:</text></g></g></g></g></g></g></g></g></g><g transform="matrix(1.0, 0.0, 0.0, 1.0, 15.5, 0.0)"><g transform="matrix(1.0, -0.0, 0.0, 1.0, 0.0, 0.0)"><g /></g></g><g transform="matrix(1.0, 0.0, 0.0, 1.0, 16.0, 0.0)"><g><g style="fill: #f4b89b;stroke: black;stroke-width: 1.2000000000000002;fill-opacity: 1.0;stroke-dasharray: ;" transform="matrix(1.0, 0.0, 0.0, 1.0, -0.5, -0.5)"><path d="M 0.0 0.0 L 1.0 0.0 L 1.0 1.0 L 0.0 1.0 L 0.0 0.0 Z" style="vector-effect: non-scaling-stroke;" /></g><g style="fill: #000000;stroke: black;stroke-width: 0.0;stroke-dasharray: ;" transform="matrix(1.0, 0.0, 0.0, 1.0, 0.0, 0.0)"><text style="text-align:center; text-anchor:middle; dominant-baseline:middle;&#10;                      font-family:sans-serif; font-weight: bold;&#10;                      font-size:0.28px;&#10;                      vector-effect: non-scaling-stroke;" transform="translate(-5e-05, 0)">invo</text></g><g transform="matrix(1.0, 0.0, 0.0, 1.0, 0.5, 0.0)"><g transform="matrix(1.0, -0.0, 0.0, 1.0, 0.0, 0.0)"><g /></g></g><g transform="matrix(1.0, 0.0, 0.0, 1.0, 1.0, 0.0)"><g><g style="fill: #eb6834;stroke: black;stroke-width: 1.2000000000000002;fill-opacity: 1.0;stroke-dasharray: ;" transform="matrix(1.0, 0.0, 0.0, 1.0, -0.5, -0.5)"><path d="M 0.0 0.0 L 1.0 0.0 L 1.0 1.0 L 0.0 1.0 L 0.0 0.0 Z" style="vector-effect: non-scaling-stroke;" /></g><g style="fill: #000000;stroke: black;stroke-width: 0.0;stroke-dasharray: ;" transform="matrix(1.0, 0.0, 0.0, 1.0, 0.0, 0.0)"><text style="text-align:center; text-anchor:middle; dominant-baseline:middle;&#10;                      font-family:sans-serif; font-weight: bold;&#10;                      font-size:0.28px;&#10;                      vector-effect: non-scaling-stroke;" transform="translate(-5e-05, 0)">M</text></g></g></g><g transform="matrix(1.0, 0.0, 0.0, 1.0, 1.5, 0.0)"><g transform="matrix(1.0, -0.0, 0.0, 1.0, 0.0, 0.0)"><g /></g></g><g transform="matrix(1.0, 0.0, 0.0, 1.0, 2.0, 0.0)"><g><g style="fill: #f4b89b;stroke: black;stroke-width: 1.2000000000000002;fill-opacity: 1.0;stroke-dasharray: ;" transform="matrix(1.0, 0.0, 0.0, 1.0, -0.5, -0.5)"><path d="M 0.0 0.0 L 1.0 0.0 L 1.0 1.0 L 0.0 1.0 L 0.0 0.0 Z" style="vector-effect: non-scaling-stroke;" /></g><g style="fill: #000000;stroke: black;stroke-width: 0.0;stroke-dasharray: ;" transform="matrix(1.0, 0.0, 0.0, 1.0, 0.0, 0.0)"><text style="text-align:center; text-anchor:middle; dominant-baseline:middle;&#10;                      font-family:sans-serif; font-weight: bold;&#10;                      font-size:0.28px;&#10;                      vector-effect: non-scaling-stroke;" transform="translate(-5e-05, 0)" /></g><g transform="matrix(1.0, 0.0, 0.0, 1.0, 0.5, 0.0)"><g transform="matrix(1.0, -0.0, 0.0, 1.0, 0.0, 0.0)"><g /></g></g><g transform="matrix(1.0, 0.0, 0.0, 1.0, 1.0, 0.0)"><g><g style="fill: #f4b89b;stroke: black;stroke-width: 1.2000000000000002;fill-opacity: 1.0;stroke-dasharray: ;" transform="matrix(1.0, 0.0, 0.0, 1.0, -0.5, -0.5)"><path d="M 0.0 0.0 L 1.0 0.0 L 1.0 1.0 L 0.0 1.0 L 0.0 0.0 Z" style="vector-effect: non-scaling-stroke;" /></g><g style="fill: #000000;stroke: black;stroke-width: 0.0;stroke-dasharray: ;" transform="matrix(1.0, 0.0, 0.0, 1.0, 0.0, 0.0)"><text style="text-align:center; text-anchor:middle; dominant-baseline:middle;&#10;                      font-family:sans-serif; font-weight: bold;&#10;                      font-size:0.28px;&#10;                      vector-effect: non-scaling-stroke;" transform="translate(-5e-05, 0)">tech</text></g></g></g></g></g><g transform="matrix(1.0, 0.0, 0.0, 1.0, 3.5, 0.0)"><g transform="matrix(1.0, -0.0, 0.0, 1.0, 0.0, 0.0)"><g /></g></g><g transform="matrix(1.0, 0.0, 0.0, 1.0, 4.0, 0.0)"><g><g style="fill: #f4b89b;stroke: black;stroke-width: 1.2000000000000002;fill-opacity: 1.0;stroke-dasharray: ;" transform="matrix(1.0, 0.0, 0.0, 1.0, -0.5, -0.5)"><path d="M 0.0 0.0 L 1.0 0.0 L 1.0 1.0 L 0.0 1.0 L 0.0 0.0 Z" style="vector-effect: non-scaling-stroke;" /></g><g style="fill: #000000;stroke: black;stroke-width: 0.0;stroke-dasharray: ;" transform="matrix(1.0, 0.0, 0.0, 1.0, 0.0, 0.0)"><text style="text-align:center; text-anchor:middle; dominant-baseline:middle;&#10;                      font-family:sans-serif; font-weight: bold;&#10;                      font-size:0.28px;&#10;                      vector-effect: non-scaling-stroke;" transform="translate(-5e-05, 0)">:</text></g><g transform="matrix(1.0, 0.0, 0.0, 1.0, 0.5, 0.0)"><g transform="matrix(1.0, -0.0, 0.0, 1.0, 0.0, 0.0)"><g /></g></g><g transform="matrix(1.0, 0.0, 0.0, 1.0, 1.0, 0.0)"><g><g style="fill: #eb6834;stroke: black;stroke-width: 1.2000000000000002;fill-opacity: 1.0;stroke-dasharray: ;" transform="matrix(1.0, 0.0, 0.0, 1.0, -0.5, -0.5)"><path d="M 0.0 0.0 L 1.0 0.0 L 1.0 1.0 L 0.0 1.0 L 0.0 0.0 Z" style="vector-effect: non-scaling-stroke;" /></g><g style="fill: #000000;stroke: black;stroke-width: 0.0;stroke-dasharray: ;" transform="matrix(1.0, 0.0, 0.0, 1.0, 0.0, 0.0)"><text style="text-align:center; text-anchor:middle; dominant-baseline:middle;&#10;                      font-family:sans-serif; font-weight: bold;&#10;                      font-size:0.28px;&#10;                      vector-effect: non-scaling-stroke;" transform="translate(-5e-05, 0)">M</text></g></g></g><g transform="matrix(1.0, 0.0, 0.0, 1.0, 1.5, 0.0)"><g transform="matrix(1.0, -0.0, 0.0, 1.0, 0.0, 0.0)"><g /></g></g><g transform="matrix(1.0, 0.0, 0.0, 1.0, 2.0, 0.0)"><g><g style="fill: #f4b89b;stroke: black;stroke-width: 1.2000000000000002;fill-opacity: 1.0;stroke-dasharray: ;" transform="matrix(1.0, 0.0, 0.0, 1.0, -0.5, -0.5)"><path d="M 0.0 0.0 L 1.0 0.0 L 1.0 1.0 L 0.0 1.0 L 0.0 0.0 Z" style="vector-effect: non-scaling-stroke;" /></g><g style="fill: #000000;stroke: black;stroke-width: 0.0;stroke-dasharray: ;" transform="matrix(1.0, 0.0, 0.0, 1.0, 0.0, 0.0)"><text style="text-align:center; text-anchor:middle; dominant-baseline:middle;&#10;                      font-family:sans-serif; font-weight: bold;&#10;                      font-size:0.28px;&#10;                      vector-effect: non-scaling-stroke;" transform="translate(-5e-05, 0)">sa</text></g><g transform="matrix(1.0, 0.0, 0.0, 1.0, 0.5, 0.0)"><g transform="matrix(1.0, -0.0, 0.0, 1.0, 0.0, 0.0)"><g /></g></g><g transform="matrix(1.0, 0.0, 0.0, 1.0, 1.0, 0.0)"><g><g style="fill: #f4b89b;stroke: black;stroke-width: 1.2000000000000002;fill-opacity: 1.0;stroke-dasharray: ;" transform="matrix(1.0, 0.0, 0.0, 1.0, -0.5, -0.5)"><path d="M 0.0 0.0 L 1.0 0.0 L 1.0 1.0 L 0.0 1.0 L 0.0 0.0 Z" style="vector-effect: non-scaling-stroke;" /></g><g style="fill: #000000;stroke: black;stroke-width: 0.0;stroke-dasharray: ;" transform="matrix(1.0, 0.0, 0.0, 1.0, 0.0, 0.0)"><text style="text-align:center; text-anchor:middle; dominant-baseline:middle;&#10;                      font-family:sans-serif; font-weight: bold;&#10;                      font-size:0.28px;&#10;                      vector-effect: non-scaling-stroke;" transform="translate(-5e-05, 0)">le</text></g></g></g></g></g></g></g><g transform="matrix(1.0, 0.0, 0.0, 1.0, 7.5, 0.0)"><g transform="matrix(1.0, -0.0, 0.0, 1.0, 0.0, 0.0)"><g /></g></g><g transform="matrix(1.0, 0.0, 0.0, 1.0, 8.0, 0.0)"><g><g style="fill: #f4b89b;stroke: black;stroke-width: 1.2000000000000002;fill-opacity: 1.0;stroke-dasharray: ;" transform="matrix(1.0, 0.0, 0.0, 1.0, -0.5, -0.5)"><path d="M 0.0 0.0 L 1.0 0.0 L 1.0 1.0 L 0.0 1.0 L 0.0 0.0 Z" style="vector-effect: non-scaling-stroke;" /></g><g style="fill: #000000;stroke: black;stroke-width: 0.0;stroke-dasharray: ;" transform="matrix(1.0, 0.0, 0.0, 1.0, 0.0, 0.0)"><text style="text-align:center; text-anchor:middle; dominant-baseline:middle;&#10;                      font-family:sans-serif; font-weight: bold;&#10;                      font-size:0.28px;&#10;                      vector-effect: non-scaling-stroke;" transform="translate(-5e-05, 0)">s</text></g><g transform="matrix(1.0, 0.0, 0.0, 1.0, 0.5, 0.0)"><g transform="matrix(1.0, -0.0, 0.0, 1.0, 0.0, 0.0)"><g /></g></g><g transform="matrix(1.0, 0.0, 0.0, 1.0, 1.0, 0.0)"><g><g style="fill: #c3c2b7;stroke: black;stroke-width: 1.2000000000000002;fill-opacity: 1.0;stroke-dasharray: ;" transform="matrix(1.0, 0.0, 0.0, 1.0, -0.5, -0.5)"><path d="M 0.0 0.0 L 1.0 0.0 L 1.0 1.0 L 0.0 1.0 L 0.0 0.0 Z" style="vector-effect: non-scaling-stroke;" /></g><g style="fill: #000000;stroke: black;stroke-width: 0.0;stroke-dasharray: ;" transform="matrix(1.0, 0.0, 0.0, 1.0, 0.0, 0.0)"><text style="text-align:center; text-anchor:middle; dominant-baseline:middle;&#10;                      font-family:sans-serif; font-weight: bold;&#10;                      font-size:0.28px;&#10;                      vector-effect: non-scaling-stroke;" transform="translate(-5e-05, 0)">S</text></g></g></g><g transform="matrix(1.0, 0.0, 0.0, 1.0, 1.5, 0.0)"><g transform="matrix(1.0, -0.0, 0.0, 1.0, 0.0, 0.0)"><g /></g></g><g transform="matrix(1.0, 0.0, 0.0, 1.0, 2.0, 0.0)"><g><g style="fill: #8fd6b8;stroke: black;stroke-width: 1.2000000000000002;fill-opacity: 1.0;stroke-dasharray: ;" transform="matrix(1.0, 0.0, 0.0, 1.0, -0.5, -0.5)"><path d="M 0.0 0.0 L 1.0 0.0 L 1.0 1.0 L 0.0 1.0 L 0.0 0.0 Z" style="vector-effect: non-scaling-stroke;" /></g><g style="fill: #000000;stroke: black;stroke-width: 0.0;stroke-dasharray: ;" transform="matrix(1.0, 0.0, 0.0, 1.0, 0.0, 0.0)"><text style="text-align:center; text-anchor:middle; dominant-baseline:middle;&#10;                      font-family:sans-serif; font-weight: bold;&#10;                      font-size:0.28px;&#10;                      vector-effect: non-scaling-stroke;" transform="translate(-5e-05, 0)">th</text></g><g transform="matrix(1.0, 0.0, 0.0, 1.0, 0.5, 0.0)"><g transform="matrix(1.0, -0.0, 0.0, 1.0, 0.0, 0.0)"><g /></g></g><g transform="matrix(1.0, 0.0, 0.0, 1.0, 1.0, 0.0)"><g><g style="fill: #8fd6b8;stroke: black;stroke-width: 1.2000000000000002;fill-opacity: 1.0;stroke-dasharray: ;" transform="matrix(1.0, 0.0, 0.0, 1.0, -0.5, -0.5)"><path d="M 0.0 0.0 L 1.0 0.0 L 1.0 1.0 L 0.0 1.0 L 0.0 0.0 Z" style="vector-effect: non-scaling-stroke;" /></g><g style="fill: #000000;stroke: black;stroke-width: 0.0;stroke-dasharray: ;" transform="matrix(1.0, 0.0, 0.0, 1.0, 0.0, 0.0)"><text style="text-align:center; text-anchor:middle; dominant-baseline:middle;&#10;                      font-family:sans-serif; font-weight: bold;&#10;                      font-size:0.28px;&#10;                      vector-effect: non-scaling-stroke;" transform="translate(-5e-05, 0)">e</text></g></g></g></g></g><g transform="matrix(1.0, 0.0, 0.0, 1.0, 3.5, 0.0)"><g transform="matrix(1.0, -0.0, 0.0, 1.0, 0.0, 0.0)"><g /></g></g><g transform="matrix(1.0, 0.0, 0.0, 1.0, 4.0, 0.0)"><g><g style="fill: #8fd6b8;stroke: black;stroke-width: 1.2000000000000002;fill-opacity: 1.0;stroke-dasharray: ;" transform="matrix(1.0, 0.0, 0.0, 1.0, -0.5, -0.5)"><path d="M 0.0 0.0 L 1.0 0.0 L 1.0 1.0 L 0.0 1.0 L 0.0 0.0 Z" style="vector-effect: non-scaling-stroke;" /></g><g style="fill: #000000;stroke: black;stroke-width: 0.0;stroke-dasharray: ;" transform="matrix(1.0, 0.0, 0.0, 1.0, 0.0, 0.0)"><text style="text-align:center; text-anchor:middle; dominant-baseline:middle;&#10;                      font-family:sans-serif; font-weight: bold;&#10;                      font-size:0.28px;&#10;                      vector-effect: non-scaling-stroke;" transform="translate(-5e-05, 0)">cust</text></g><g transform="matrix(1.0, 0.0, 0.0, 1.0, 0.5, 0.0)"><g transform="matrix(1.0, -0.0, 0.0, 1.0, 0.0, 0.0)"><g /></g></g><g transform="matrix(1.0, 0.0, 0.0, 1.0, 1.0, 0.0)"><g><g style="fill: #8fd6b8;stroke: black;stroke-width: 1.2000000000000002;fill-opacity: 1.0;stroke-dasharray: ;" transform="matrix(1.0, 0.0, 0.0, 1.0, -0.5, -0.5)"><path d="M 0.0 0.0 L 1.0 0.0 L 1.0 1.0 L 0.0 1.0 L 0.0 0.0 Z" style="vector-effect: non-scaling-stroke;" /></g><g style="fill: #000000;stroke: black;stroke-width: 0.0;stroke-dasharray: ;" transform="matrix(1.0, 0.0, 0.0, 1.0, 0.0, 0.0)"><text style="text-align:center; text-anchor:middle; dominant-baseline:middle;&#10;                      font-family:sans-serif; font-weight: bold;&#10;                      font-size:0.28px;&#10;                      vector-effect: non-scaling-stroke;" transform="translate(-5e-05, 0)">writ</text></g></g></g><g transform="matrix(1.0, 0.0, 0.0, 1.0, 1.5, 0.0)"><g transform="matrix(1.0, -0.0, 0.0, 1.0, 0.0, 0.0)"><g /></g></g><g transform="matrix(1.0, 0.0, 0.0, 1.0, 2.0, 0.0)"><g><g style="fill: #8fd6b8;stroke: black;stroke-width: 1.2000000000000002;fill-opacity: 1.0;stroke-dasharray: ;" transform="matrix(1.0, 0.0, 0.0, 1.0, -0.5, -0.5)"><path d="M 0.0 0.0 L 1.0 0.0 L 1.0 1.0 L 0.0 1.0 L 0.0 0.0 Z" style="vector-effect: non-scaling-stroke;" /></g><g style="fill: #000000;stroke: black;stroke-width: 0.0;stroke-dasharray: ;" transform="matrix(1.0, 0.0, 0.0, 1.0, 0.0, 0.0)"><text style="text-align:center; text-anchor:middle; dominant-baseline:middle;&#10;                      font-family:sans-serif; font-weight: bold;&#10;                      font-size:0.28px;&#10;                      vector-effect: non-scaling-stroke;" transform="translate(-5e-05, 0)">that</text></g><g transform="matrix(1.0, 0.0, 0.0, 1.0, 0.5, 0.0)"><g transform="matrix(1.0, -0.0, 0.0, 1.0, 0.0, 0.0)"><g /></g></g><g transform="matrix(1.0, 0.0, 0.0, 1.0, 1.0, 0.0)"><g><g style="fill: #8fd6b8;stroke: black;stroke-width: 1.2000000000000002;fill-opacity: 1.0;stroke-dasharray: ;" transform="matrix(1.0, 0.0, 0.0, 1.0, -0.5, -0.5)"><path d="M 0.0 0.0 L 1.0 0.0 L 1.0 1.0 L 0.0 1.0 L 0.0 0.0 Z" style="vector-effect: non-scaling-stroke;" /></g><g style="fill: #000000;stroke: black;stroke-width: 0.0;stroke-dasharray: ;" transform="matrix(1.0, 0.0, 0.0, 1.0, 0.0, 0.0)"><text style="text-align:center; text-anchor:middle; dominant-baseline:middle;&#10;                      font-family:sans-serif; font-weight: bold;&#10;                      font-size:0.28px;&#10;                      vector-effect: non-scaling-stroke;" transform="translate(-5e-05, 0)">the</text></g></g></g></g></g></g></g></g></g></g></g><g transform="matrix(1.0, 0.0, 0.0, 1.0, 31.5, 0.0)"><g transform="matrix(1.0, -0.0, 0.0, 1.0, 0.0, 0.0)"><g /></g></g><g transform="matrix(1.0, 0.0, 0.0, 1.0, 32.0, 0.0)"><g><g style="fill: #8fd6b8;stroke: black;stroke-width: 1.2000000000000002;fill-opacity: 1.0;stroke-dasharray: ;" transform="matrix(1.0, 0.0, 0.0, 1.0, -0.5, -0.5)"><path d="M 0.0 0.0 L 1.0 0.0 L 1.0 1.0 L 0.0 1.0 L 0.0 0.0 Z" style="vector-effect: non-scaling-stroke;" /></g><g style="fill: #000000;stroke: black;stroke-width: 0.0;stroke-dasharray: ;" transform="matrix(1.0, 0.0, 0.0, 1.0, 0.0, 0.0)"><text style="text-align:center; text-anchor:middle; dominant-baseline:middle;&#10;                      font-family:sans-serif; font-weight: bold;&#10;                      font-size:0.28px;&#10;                      vector-effect: non-scaling-stroke;" transform="translate(-5e-05, 0)">invo</text></g><g transform="matrix(1.0, 0.0, 0.0, 1.0, 0.5, 0.0)"><g transform="matrix(1.0, -0.0, 0.0, 1.0, 0.0, 0.0)"><g /></g></g><g transform="matrix(1.0, 0.0, 0.0, 1.0, 1.0, 0.0)"><g><g style="fill: #8fd6b8;stroke: black;stroke-width: 1.2000000000000002;fill-opacity: 1.0;stroke-dasharray: ;" transform="matrix(1.0, 0.0, 0.0, 1.0, -0.5, -0.5)"><path d="M 0.0 0.0 L 1.0 0.0 L 1.0 1.0 L 0.0 1.0 L 0.0 0.0 Z" style="vector-effect: non-scaling-stroke;" /></g><g style="fill: #000000;stroke: black;stroke-width: 0.0;stroke-dasharray: ;" transform="matrix(1.0, 0.0, 0.0, 1.0, 0.0, 0.0)"><text style="text-align:center; text-anchor:middle; dominant-baseline:middle;&#10;                      font-family:sans-serif; font-weight: bold;&#10;                      font-size:0.28px;&#10;                      vector-effect: non-scaling-stroke;" transform="translate(-5e-05, 0)">was</text></g></g></g><g transform="matrix(1.0, 0.0, 0.0, 1.0, 1.5, 0.0)"><g transform="matrix(1.0, -0.0, 0.0, 1.0, 0.0, 0.0)"><g /></g></g><g transform="matrix(1.0, 0.0, 0.0, 1.0, 2.0, 0.0)"><g><g style="fill: #8fd6b8;stroke: black;stroke-width: 1.2000000000000002;fill-opacity: 1.0;stroke-dasharray: ;" transform="matrix(1.0, 0.0, 0.0, 1.0, -0.5, -0.5)"><path d="M 0.0 0.0 L 1.0 0.0 L 1.0 1.0 L 0.0 1.0 L 0.0 0.0 Z" style="vector-effect: non-scaling-stroke;" /></g><g style="fill: #000000;stroke: black;stroke-width: 0.0;stroke-dasharray: ;" transform="matrix(1.0, 0.0, 0.0, 1.0, 0.0, 0.0)"><text style="text-align:center; text-anchor:middle; dominant-baseline:middle;&#10;                      font-family:sans-serif; font-weight: bold;&#10;                      font-size:0.28px;&#10;                      vector-effect: non-scaling-stroke;" transform="translate(-5e-05, 0)">char</text></g><g transform="matrix(1.0, 0.0, 0.0, 1.0, 0.5, 0.0)"><g transform="matrix(1.0, -0.0, 0.0, 1.0, 0.0, 0.0)"><g /></g></g><g transform="matrix(1.0, 0.0, 0.0, 1.0, 1.0, 0.0)"><g><g style="fill: #8fd6b8;stroke: black;stroke-width: 1.2000000000000002;fill-opacity: 1.0;stroke-dasharray: ;" transform="matrix(1.0, 0.0, 0.0, 1.0, -0.5, -0.5)"><path d="M 0.0 0.0 L 1.0 0.0 L 1.0 1.0 L 0.0 1.0 L 0.0 0.0 Z" style="vector-effect: non-scaling-stroke;" /></g><g style="fill: #000000;stroke: black;stroke-width: 0.0;stroke-dasharray: ;" transform="matrix(1.0, 0.0, 0.0, 1.0, 0.0, 0.0)"><text style="text-align:center; text-anchor:middle; dominant-baseline:middle;&#10;                      font-family:sans-serif; font-weight: bold;&#10;                      font-size:0.28px;&#10;                      vector-effect: non-scaling-stroke;" transform="translate(-5e-05, 0)">ged</text></g></g></g></g></g></g></g><g transform="matrix(1.0, 0.0, 0.0, 1.0, 35.5, 0.0)"><g transform="matrix(1.0, -0.0, 0.0, 1.0, 0.0, 0.0)"><g /></g></g><g transform="matrix(1.0, 0.0, 0.0, 1.0, 36.0, 0.0)"><g><g style="fill: #8fd6b8;stroke: black;stroke-width: 1.2000000000000002;fill-opacity: 1.0;stroke-dasharray: ;" transform="matrix(1.0, 0.0, 0.0, 1.0, -0.5, -0.5)"><path d="M 0.0 0.0 L 1.0 0.0 L 1.0 1.0 L 0.0 1.0 L 0.0 0.0 Z" style="vector-effect: non-scaling-stroke;" /></g><g style="fill: #000000;stroke: black;stroke-width: 0.0;stroke-dasharray: ;" transform="matrix(1.0, 0.0, 0.0, 1.0, 0.0, 0.0)"><text style="text-align:center; text-anchor:middle; dominant-baseline:middle;&#10;                      font-family:sans-serif; font-weight: bold;&#10;                      font-size:0.28px;&#10;                      vector-effect: non-scaling-stroke;" transform="translate(-5e-05, 0)">tw</text></g><g transform="matrix(1.0, 0.0, 0.0, 1.0, 0.5, 0.0)"><g transform="matrix(1.0, -0.0, 0.0, 1.0, 0.0, 0.0)"><g /></g></g><g transform="matrix(1.0, 0.0, 0.0, 1.0, 1.0, 0.0)"><g><g style="fill: #8fd6b8;stroke: black;stroke-width: 1.2000000000000002;fill-opacity: 1.0;stroke-dasharray: ;" transform="matrix(1.0, 0.0, 0.0, 1.0, -0.5, -0.5)"><path d="M 0.0 0.0 L 1.0 0.0 L 1.0 1.0 L 0.0 1.0 L 0.0 0.0 Z" style="vector-effect: non-scaling-stroke;" /></g><g style="fill: #000000;stroke: black;stroke-width: 0.0;stroke-dasharray: ;" transform="matrix(1.0, 0.0, 0.0, 1.0, 0.0, 0.0)"><text style="text-align:center; text-anchor:middle; dominant-baseline:middle;&#10;                      font-family:sans-serif; font-weight: bold;&#10;                      font-size:0.28px;&#10;                      vector-effect: non-scaling-stroke;" transform="translate(-5e-05, 0)">ice</text></g></g></g></g></g><g transform="matrix(1.0, 0.0, 0.0, 1.0, 37.5, 0.0)"><g transform="matrix(1.0, -0.0, 0.0, 1.0, 0.0, 0.0)"><g /></g></g><g transform="matrix(1.0, 0.0, 0.0, 1.0, 38.0, 0.0)"><g><g style="fill: #c3c2b7;stroke: black;stroke-width: 1.2000000000000002;fill-opacity: 1.0;stroke-dasharray: ;" transform="matrix(1.0, 0.0, 0.0, 1.0, -0.5, -0.5)"><path d="M 0.0 0.0 L 1.0 0.0 L 1.0 1.0 L 0.0 1.0 L 0.0 0.0 Z" style="vector-effect: non-scaling-stroke;" /></g><g style="fill: #000000;stroke: black;stroke-width: 0.0;stroke-dasharray: ;" transform="matrix(1.0, 0.0, 0.0, 1.0, 0.0, 0.0)"><text style="text-align:center; text-anchor:middle; dominant-baseline:middle;&#10;                      font-family:sans-serif; font-weight: bold;&#10;                      font-size:0.28px;&#10;                      vector-effect: non-scaling-stroke;" transform="translate(-5e-05, 0)">S</text></g></g></g></g></g><g transform="matrix(1.0, 0.0, 0.0, 1.0, 0.0, 0.5)"><g transform="matrix(0.0, -1.0, 1.0, 0.0, 0.0, 0.0)"><g /></g></g><g transform="matrix(1.0, 0.0, 0.0, 1.0, 0.0, 0.5)"><g /></g></g></g><g style="stroke: #52514e;stroke-width: 1.2000000000000002;stroke-dasharray: ;" transform="matrix(1.0, 0.0, 0.0, 1.0, 0.0, 0.0)"><path d="M 13.55 -0.85 L 17.45 -0.85" style="vector-effect: non-scaling-stroke;fill:none;" /></g><g style="stroke: #52514e;stroke-width: 1.2000000000000002;stroke-dasharray: ;" transform="matrix(1.0, 0.0, 0.0, 1.0, 0.0, 0.0)"><path d="M 13.55 -0.99 L 13.55 -0.71" style="vector-effect: non-scaling-stroke;fill:none;" /></g><g style="stroke: #52514e;stroke-width: 1.2000000000000002;stroke-dasharray: ;" transform="matrix(1.0, 0.0, 0.0, 1.0, 0.0, 0.0)"><path d="M 17.45 -0.99 L 17.45 -0.71" style="vector-effect: non-scaling-stroke;fill:none;" /></g><g transform="matrix(1.0, 0.0, 0.0, 1.0, 15.5, -1.24)"><g><g style="fill: #52514e;stroke: black;stroke-width: 0.0;" transform="matrix(1.0, 0.0, 0.0, 1.0, 0.0, 0.0)"><text style="text-align:center; text-anchor:middle; dominant-baseline:middle;&#10;                      font-family:sans-serif; font-weight: bold;&#10;                      font-size:0.28px;&#10;                      vector-effect: non-scaling-stroke;" transform="translate(-5e-05, 0)">option 0: ≤ 1 + 3</text></g><g /></g></g><g style="stroke: #52514e;stroke-width: 1.2000000000000002;stroke-dasharray: ;" transform="matrix(1.0, 0.0, 0.0, 1.0, 0.0, 0.0)"><path d="M 17.55 -0.85 L 21.45 -0.85" style="vector-effect: non-scaling-stroke;fill:none;" /></g><g style="stroke: #52514e;stroke-width: 1.2000000000000002;stroke-dasharray: ;" transform="matrix(1.0, 0.0, 0.0, 1.0, 0.0, 0.0)"><path d="M 17.55 -0.99 L 17.55 -0.71" style="vector-effect: non-scaling-stroke;fill:none;" /></g><g style="stroke: #52514e;stroke-width: 1.2000000000000002;stroke-dasharray: ;" transform="matrix(1.0, 0.0, 0.0, 1.0, 0.0, 0.0)"><path d="M 21.45 -0.99 L 21.45 -0.71" style="vector-effect: non-scaling-stroke;fill:none;" /></g><g transform="matrix(1.0, 0.0, 0.0, 1.0, 19.5, -1.24)"><g><g style="fill: #52514e;stroke: black;stroke-width: 0.0;" transform="matrix(1.0, 0.0, 0.0, 1.0, 0.0, 0.0)"><text style="text-align:center; text-anchor:middle; dominant-baseline:middle;&#10;                      font-family:sans-serif; font-weight: bold;&#10;                      font-size:0.28px;&#10;                      vector-effect: non-scaling-stroke;" transform="translate(-5e-05, 0)">option 1: ≤ 1 + 3</text></g><g /></g></g><g style="stroke: #52514e;stroke-width: 1.2000000000000002;stroke-dasharray: ;" transform="matrix(1.0, 0.0, 0.0, 1.0, 0.0, 0.0)"><path d="M 21.55 -0.85 L 25.45 -0.85" style="vector-effect: non-scaling-stroke;fill:none;" /></g><g style="stroke: #52514e;stroke-width: 1.2000000000000002;stroke-dasharray: ;" transform="matrix(1.0, 0.0, 0.0, 1.0, 0.0, 0.0)"><path d="M 21.55 -0.99 L 21.55 -0.71" style="vector-effect: non-scaling-stroke;fill:none;" /></g><g style="stroke: #52514e;stroke-width: 1.2000000000000002;stroke-dasharray: ;" transform="matrix(1.0, 0.0, 0.0, 1.0, 0.0, 0.0)"><path d="M 25.45 -0.99 L 25.45 -0.71" style="vector-effect: non-scaling-stroke;fill:none;" /></g><g transform="matrix(1.0, 0.0, 0.0, 1.0, 23.5, -1.24)"><g><g style="fill: #52514e;stroke: black;stroke-width: 0.0;" transform="matrix(1.0, 0.0, 0.0, 1.0, 0.0, 0.0)"><text style="text-align:center; text-anchor:middle; dominant-baseline:middle;&#10;                      font-family:sans-serif; font-weight: bold;&#10;                      font-size:0.28px;&#10;                      vector-effect: non-scaling-stroke;" transform="translate(-5e-05, 0)">option 2: ≤ 1 + 3</text></g><g /></g></g><g style="stroke: #52514e;stroke-width: 1.2000000000000002;stroke-dasharray: ;" transform="matrix(1.0, 0.0, 0.0, 1.0, 0.0, 0.0)"><path d="M 0.55 -0.85 L 12.45 -0.85" style="vector-effect: non-scaling-stroke;fill:none;" /></g><g style="stroke: #52514e;stroke-width: 1.2000000000000002;stroke-dasharray: ;" transform="matrix(1.0, 0.0, 0.0, 1.0, 0.0, 0.0)"><path d="M 0.55 -0.99 L 0.55 -0.71" style="vector-effect: non-scaling-stroke;fill:none;" /></g><g style="stroke: #52514e;stroke-width: 1.2000000000000002;stroke-dasharray: ;" transform="matrix(1.0, 0.0, 0.0, 1.0, 0.0, 0.0)"><path d="M 12.45 -0.99 L 12.45 -0.71" style="vector-effect: non-scaling-stroke;fill:none;" /></g><g transform="matrix(1.0, 0.0, 0.0, 1.0, 6.5, -1.24)"><g><g style="fill: #52514e;stroke: black;stroke-width: 0.0;" transform="matrix(1.0, 0.0, 0.0, 1.0, 0.0, 0.0)"><text style="text-align:center; text-anchor:middle; dominant-baseline:middle;&#10;                      font-family:sans-serif; font-weight: bold;&#10;                      font-size:0.28px;&#10;                      vector-effect: non-scaling-stroke;" transform="translate(-5e-05, 0)">question: what is left of 24</text></g><g /></g></g><g style="stroke: #52514e;stroke-width: 1.2000000000000002;stroke-dasharray: ;" transform="matrix(1.0, 0.0, 0.0, 1.0, 0.0, 0.0)"><path d="M -0.45 0.8 L 26.45 0.8" style="vector-effect: non-scaling-stroke;fill:none;" /></g><g style="stroke: #52514e;stroke-width: 1.2000000000000002;stroke-dasharray: ;" transform="matrix(1.0, 0.0, 0.0, 1.0, 0.0, 0.0)"><path d="M -0.45 0.66 L -0.45 0.9400000000000001" style="vector-effect: non-scaling-stroke;fill:none;" /></g><g style="stroke: #52514e;stroke-width: 1.2000000000000002;stroke-dasharray: ;" transform="matrix(1.0, 0.0, 0.0, 1.0, 0.0, 0.0)"><path d="M 26.45 0.66 L 26.45 0.9400000000000001" style="vector-effect: non-scaling-stroke;fill:none;" /></g><g transform="matrix(1.0, 0.0, 0.0, 1.0, 13.0, 1.28)"><g><g style="fill: #52514e;stroke: black;stroke-width: 0.0;" transform="matrix(1.0, 0.0, 0.0, 1.0, 0.0, 0.0)"><text style="text-align:center; text-anchor:middle; dominant-baseline:middle;&#10;                      font-family:sans-serif; font-weight: bold;&#10;                      font-size:0.32px;&#10;                      vector-effect: non-scaling-stroke;" transform="translate(-5e-05, 0)">the question and its options: head_max_len = 24</text></g><g /></g></g><g style="stroke: #52514e;stroke-width: 1.2000000000000002;stroke-dasharray: ;" transform="matrix(1.0, 0.0, 0.0, 1.0, 0.0, 0.0)"><path d="M 26.55 0.8 L 38.45 0.8" style="vector-effect: non-scaling-stroke;fill:none;" /></g><g style="stroke: #52514e;stroke-width: 1.2000000000000002;stroke-dasharray: ;" transform="matrix(1.0, 0.0, 0.0, 1.0, 0.0, 0.0)"><path d="M 26.55 0.66 L 26.55 0.9400000000000001" style="vector-effect: non-scaling-stroke;fill:none;" /></g><g style="stroke: #52514e;stroke-width: 1.2000000000000002;stroke-dasharray: ;" transform="matrix(1.0, 0.0, 0.0, 1.0, 0.0, 0.0)"><path d="M 38.45 0.66 L 38.45 0.9400000000000001" style="vector-effect: non-scaling-stroke;fill:none;" /></g><g transform="matrix(1.0, 0.0, 0.0, 1.0, 32.5, 1.28)"><g><g style="fill: #52514e;stroke: black;stroke-width: 0.0;" transform="matrix(1.0, 0.0, 0.0, 1.0, 0.0, 0.0)"><text style="text-align:center; text-anchor:middle; dominant-baseline:middle;&#10;                      font-family:sans-serif; font-weight: bold;&#10;                      font-size:0.32px;&#10;                      vector-effect: non-scaling-stroke;" transform="translate(-5e-05, 0)">the state: the rest of max_len = 40, cut on the right</text></g><g /></g></g><g style="stroke: #52514e;stroke-width: 1.2000000000000002;stroke-dasharray: ;" transform="matrix(1.0, 0.0, 0.0, 1.0, 0.0, 0.0)"><path d="M -0.45 2.2 L 39.45 2.2" style="vector-effect: non-scaling-stroke;fill:none;" /></g><g style="stroke: #52514e;stroke-width: 1.2000000000000002;stroke-dasharray: ;" transform="matrix(1.0, 0.0, 0.0, 1.0, 0.0, 0.0)"><path d="M -0.45 2.06 L -0.45 2.3400000000000003" style="vector-effect: non-scaling-stroke;fill:none;" /></g><g style="stroke: #52514e;stroke-width: 1.2000000000000002;stroke-dasharray: ;" transform="matrix(1.0, 0.0, 0.0, 1.0, 0.0, 0.0)"><path d="M 39.45 2.06 L 39.45 2.3400000000000003" style="vector-effect: non-scaling-stroke;fill:none;" /></g><g transform="matrix(1.0, 0.0, 0.0, 1.0, 19.5, 2.68)"><g><g style="fill: #52514e;stroke: black;stroke-width: 0.0;" transform="matrix(1.0, 0.0, 0.0, 1.0, 0.0, 0.0)"><text style="text-align:center; text-anchor:middle; dominant-baseline:middle;&#10;                      font-family:sans-serif; font-weight: bold;&#10;                      font-size:0.32px;&#10;                      vector-effect: non-scaling-stroke;" transform="translate(-5e-05, 0)">the row: max_len = 40 tokens</text></g><g /></g></g></g></g><g /></g></g></g></g></svg>