<?xml version="1.0" encoding="utf-8" ?>
<svg viewBox="0 0 1100 450" baseProfile="full" height="450" version="1.1" width="1100" xmlns="http://www.w3.org/2000/svg" xmlns:ev="http://www.w3.org/2001/xml-events" xmlns:xlink="http://www.w3.org/1999/xlink"><defs><marker id="arrow" markerHeight="3.5" markerWidth="5" orient="auto" refX="5.0" refY="1.7"><polygon points="0,0 5,1.75 0,3.5" /></marker></defs><g style="fill:white;"><g transform="matrix(1.0, 0.0, 0.0, 1.0, 550.4999999999998, 225.0)"><g transform="matrix(28.57142857142857, 0.0, 0.0, 28.57142857142857, 0.0, 0.0)"><g><g transform="matrix(1.0, 0.0, 0.0, 1.0, -17.65, -7.000000000000001)"><g><g style="fill: #ffffff;stroke: black;stroke-width: 0.0;" transform="matrix(1.0, 0.0, 0.0, 1.0, -0.6999999999999957, -0.5)"><path d="M 0.0 0.0 L 36.69999999999999 0.0 L 36.69999999999999 15.000000000000002 L 0.0 15.000000000000002 L 0.0 0.0 Z" style="vector-effect: non-scaling-stroke;" /></g><g style="fill: #fbfaf7;stroke: #898781;stroke-width: 1.2000000000000002;" transform="matrix(1.0, 0.0, 0.0, 1.0, 0.0, 1.2000000000000002)"><path d="M 0.0 0.0 L 8.2 0.0 L 8.2 2.42 L 0.0 2.42 L 0.0 0.0 Z" style="vector-effect: non-scaling-stroke;" /></g><g transform="matrix(1.0, 0.0, 0.0, 1.0, 4.1, 1.69)"><g><g style="fill: #0b0b0b;stroke: black;stroke-width: 0.0;" transform="matrix(1.0, 0.0, 0.0, 1.0, 0.0, 0.0)"><text style="text-align:center; text-anchor:middle; dominant-baseline:middle;&#10;                      font-family:sans-serif; font-weight: bold;&#10;                      font-size:0.3px;&#10;                      vector-effect: non-scaling-stroke;" transform="translate(-5e-05, 0)">Shares of the chip maker rose 5%</text></g><g /></g></g><g transform="matrix(1.0, 0.0, 0.0, 1.0, 4.1, 2.17)"><g><g style="fill: #0b0b0b;stroke: black;stroke-width: 0.0;" transform="matrix(1.0, 0.0, 0.0, 1.0, 0.0, 0.0)"><text style="text-align:center; text-anchor:middle; dominant-baseline:middle;&#10;                      font-family:sans-serif; font-weight: bold;&#10;                      font-size:0.3px;&#10;                      vector-effect: non-scaling-stroke;" transform="translate(-5e-05, 0)">after its quarterly earnings beat</text></g><g /></g></g><g transform="matrix(1.0, 0.0, 0.0, 1.0, 4.1, 2.65)"><g><g style="fill: #0b0b0b;stroke: black;stroke-width: 0.0;" transform="matrix(1.0, 0.0, 0.0, 1.0, 0.0, 0.0)"><text style="text-align:center; text-anchor:middle; dominant-baseline:middle;&#10;                      font-family:sans-serif; font-weight: bold;&#10;                      font-size:0.3px;&#10;                      vector-effect: non-scaling-stroke;" transform="translate(-5e-05, 0)">forecasts.</text></g><g /></g></g><g transform="matrix(1.0, 0.0, 0.0, 1.0, 4.1, 3.13)"><g><g style="fill: #0b0b0b;stroke: black;stroke-width: 0.0;" transform="matrix(1.0, 0.0, 0.0, 1.0, 0.0, 0.0)"><text style="text-align:center; text-anchor:middle; dominant-baseline:middle;&#10;                      font-family:sans-serif; font-weight: bold;&#10;                      font-size:0.3px;&#10;                      vector-effect: non-scaling-stroke;" transform="translate(-5e-05, 0)">gold: Business</text></g><g /></g></g><g transform="matrix(1.0, 0.0, 0.0, 1.0, 4.1, 0.6)"><g><g style="fill: #0b0b0b;stroke: black;stroke-width: 0.0;" transform="matrix(1.0, 0.0, 0.0, 1.0, 0.0, 0.0)"><text style="text-align:center; text-anchor:middle; dominant-baseline:middle;&#10;                      font-family:sans-serif; font-weight: bold;&#10;                      font-size:0.34px;&#10;                      vector-effect: non-scaling-stroke;" transform="translate(-5e-05, 0)">the record</text></g><g /></g></g><g style="stroke: #52514e;stroke-width: 1.2000000000000002;stroke-dasharray: ;" transform="matrix(1.0, 0.0, 0.0, 1.0, 0.0, 0.0)"><path d="M 8.399999999999999 2.6 L 9.212 2.6" style="vector-effect: non-scaling-stroke;fill:none;" /></g><g style="fill: #52514e;stroke: #52514e;stroke-width: 0.0;" transform="matrix(1.0, 0.0, 0.0, 1.0, 0.0, 0.0)"><path d="M 9.5 2.6 L 9.212 2.708 L 9.212 2.492 L 9.5 2.6 Z" style="vector-effect: non-scaling-stroke;" /></g><g style="fill: #fbfaf7;stroke: #898781;stroke-width: 1.2000000000000002;" transform="matrix(1.0, 0.0, 0.0, 1.0, 0.0, 8.6)"><path d="M 0.0 0.0 L 8.2 0.0 L 8.2 1.94 L 0.0 1.94 L 0.0 0.0 Z" style="vector-effect: non-scaling-stroke;" /></g><g transform="matrix(1.0, 0.0, 0.0, 1.0, 4.1, 9.09)"><g><g style="fill: #0b0b0b;stroke: black;stroke-width: 0.0;" transform="matrix(1.0, 0.0, 0.0, 1.0, 0.0, 0.0)"><text style="text-align:center; text-anchor:middle; dominant-baseline:middle;&#10;                      font-family:sans-serif; font-weight: bold;&#10;                      font-size:0.3px;&#10;                      vector-effect: non-scaling-stroke;" transform="translate(-5e-05, 0)">Lovely pasta, but we waited forty</text></g><g /></g></g><g transform="matrix(1.0, 0.0, 0.0, 1.0, 4.1, 9.57)"><g><g style="fill: #0b0b0b;stroke: black;stroke-width: 0.0;" transform="matrix(1.0, 0.0, 0.0, 1.0, 0.0, 0.0)"><text style="text-align:center; text-anchor:middle; dominant-baseline:middle;&#10;                      font-family:sans-serif; font-weight: bold;&#10;                      font-size:0.3px;&#10;                      vector-effect: non-scaling-stroke;" transform="translate(-5e-05, 0)">minutes for it.</text></g><g /></g></g><g transform="matrix(1.0, 0.0, 0.0, 1.0, 4.1, 10.049999999999999)"><g><g style="fill: #0b0b0b;stroke: black;stroke-width: 0.0;" transform="matrix(1.0, 0.0, 0.0, 1.0, 0.0, 0.0)"><text style="text-align:center; text-anchor:middle; dominant-baseline:middle;&#10;                      font-family:sans-serif; font-weight: bold;&#10;                      font-size:0.3px;&#10;                      vector-effect: non-scaling-stroke;" transform="translate(-5e-05, 0)">gold: neutral</text></g><g /></g></g><g transform="matrix(1.0, 0.0, 0.0, 1.0, 4.1, 8.0)"><g><g style="fill: #0b0b0b;stroke: black;stroke-width: 0.0;" transform="matrix(1.0, 0.0, 0.0, 1.0, 0.0, 0.0)"><text style="text-align:center; text-anchor:middle; dominant-baseline:middle;&#10;                      font-family:sans-serif; font-weight: bold;&#10;                      font-size:0.34px;&#10;                      vector-effect: non-scaling-stroke;" transform="translate(-5e-05, 0)">the record</text></g><g /></g></g><g style="stroke: #52514e;stroke-width: 1.2000000000000002;stroke-dasharray: ;" transform="matrix(1.0, 0.0, 0.0, 1.0, 0.0, 0.0)"><path d="M 8.399999999999999 10.0 L 9.212 10.0" style="vector-effect: non-scaling-stroke;fill:none;" /></g><g style="fill: #52514e;stroke: #52514e;stroke-width: 0.0;" transform="matrix(1.0, 0.0, 0.0, 1.0, 0.0, 0.0)"><path d="M 9.5 10.0 L 9.212 10.108 L 9.212 9.892 L 9.5 10.0 Z" style="vector-effect: non-scaling-stroke;" /></g><g transform="matrix(1.0, 0.0, 0.0, 1.0, 14.099999999999998, 0.6)"><g><g style="fill: #0b0b0b;stroke: black;stroke-width: 0.0;" transform="matrix(1.0, 0.0, 0.0, 1.0, 0.0, 0.0)"><text style="text-align:center; text-anchor:middle; dominant-baseline:middle;&#10;                      font-family:sans-serif; font-weight: bold;&#10;                      font-size:0.34px;&#10;                      vector-effect: non-scaling-stroke;" transform="translate(-5e-05, 0)">topic: a choice</text></g><g /></g></g><g transform="matrix(1.0, 0.0, 0.0, 1.0, 14.099999999999998, 1.05)"><g><g style="fill: #52514e;stroke: black;stroke-width: 0.0;" transform="matrix(1.0, 0.0, 0.0, 1.0, 0.0, 0.0)"><text style="text-align:center; text-anchor:middle; dominant-baseline:middle;&#10;                      font-family:sans-serif; font-weight: bold;&#10;                      font-size:0.28px;&#10;                      vector-effect: non-scaling-stroke;" transform="translate(-5e-05, 0)">the annotation, as it came</text></g><g /></g></g><g style="fill: #ffffff;stroke: #52514e;stroke-width: 1.2000000000000002;" transform="matrix(1.0, 0.0, 0.0, 1.0, 12.399999999999999, 1.44)"><path d="M 0.0 0.0 L 3.4 0.0 L 3.4 0.72 L 0.0 0.72 L 0.0 0.0 Z" style="vector-effect: non-scaling-stroke;" /></g><g transform="matrix(1.0, 0.0, 0.0, 1.0, 14.099999999999998, 1.8)"><g><g style="fill: #0b0b0b;stroke: black;stroke-width: 0.0;" transform="matrix(1.0, 0.0, 0.0, 1.0, 0.0, 0.0)"><text style="text-align:center; text-anchor:middle; dominant-baseline:middle;&#10;                      font-family:sans-serif; font-weight: bold;&#10;                      font-size:0.3px;&#10;                      vector-effect: non-scaling-stroke;" transform="translate(-5e-05, 0)">World</text></g><g /></g></g><g style="fill: #ffffff;stroke: #52514e;stroke-width: 1.2000000000000002;" transform="matrix(1.0, 0.0, 0.0, 1.0, 12.399999999999999, 2.3400000000000003)"><path d="M 0.0 0.0 L 3.4 0.0 L 3.4 0.72 L 0.0 0.72 L 0.0 0.0 Z" style="vector-effect: non-scaling-stroke;" /></g><g transform="matrix(1.0, 0.0, 0.0, 1.0, 14.099999999999998, 2.7)"><g><g style="fill: #0b0b0b;stroke: black;stroke-width: 0.0;" transform="matrix(1.0, 0.0, 0.0, 1.0, 0.0, 0.0)"><text style="text-align:center; text-anchor:middle; dominant-baseline:middle;&#10;                      font-family:sans-serif; font-weight: bold;&#10;                      font-size:0.3px;&#10;                      vector-effect: non-scaling-stroke;" transform="translate(-5e-05, 0)">Sports</text></g><g /></g></g><g style="fill: #82d3b6;stroke: #52514e;stroke-width: 1.2000000000000002;" transform="matrix(1.0, 0.0, 0.0, 1.0, 12.399999999999999, 3.24)"><path d="M 0.0 0.0 L 3.4 0.0 L 3.4 0.72 L 0.0 0.72 L 0.0 0.0 Z" style="vector-effect: non-scaling-stroke;" /></g><g transform="matrix(1.0, 0.0, 0.0, 1.0, 14.099999999999998, 3.6)"><g><g style="fill: #0b0b0b;stroke: black;stroke-width: 0.0;" transform="matrix(1.0, 0.0, 0.0, 1.0, 0.0, 0.0)"><text style="text-align:center; text-anchor:middle; dominant-baseline:middle;&#10;                      font-family:sans-serif; font-weight: bold;&#10;                      font-size:0.3px;&#10;                      vector-effect: non-scaling-stroke;" transform="translate(-5e-05, 0)">Business</text></g><g /></g></g><g style="fill: #ffffff;stroke: #52514e;stroke-width: 1.2000000000000002;" transform="matrix(1.0, 0.0, 0.0, 1.0, 12.399999999999999, 4.14)"><path d="M 0.0 0.0 L 3.4 0.0 L 3.4 0.72 L 0.0 0.72 L 0.0 0.0 Z" style="vector-effect: non-scaling-stroke;" /></g><g transform="matrix(1.0, 0.0, 0.0, 1.0, 14.099999999999998, 4.5)"><g><g style="fill: #0b0b0b;stroke: black;stroke-width: 0.0;" transform="matrix(1.0, 0.0, 0.0, 1.0, 0.0, 0.0)"><text style="text-align:center; text-anchor:middle; dominant-baseline:middle;&#10;                      font-family:sans-serif; font-weight: bold;&#10;                      font-size:0.3px;&#10;                      vector-effect: non-scaling-stroke;" transform="translate(-5e-05, 0)">Sci/Tech</text></g><g /></g></g><g transform="matrix(1.0, 0.0, 0.0, 1.0, 22.7, 0.6)"><g><g style="fill: #0b0b0b;stroke: black;stroke-width: 0.0;" transform="matrix(1.0, 0.0, 0.0, 1.0, 0.0, 0.0)"><text style="text-align:center; text-anchor:middle; dominant-baseline:middle;&#10;                      font-family:sans-serif; font-weight: bold;&#10;                      font-size:0.34px;&#10;                      vector-effect: non-scaling-stroke;" transform="translate(-5e-05, 0)">add_nouls: a statement per label</text></g><g /></g></g><g transform="matrix(1.0, 0.0, 0.0, 1.0, 22.7, 1.05)"><g><g style="fill: #52514e;stroke: black;stroke-width: 0.0;" transform="matrix(1.0, 0.0, 0.0, 1.0, 0.0, 0.0)"><text style="text-align:center; text-anchor:middle; dominant-baseline:middle;&#10;                      font-family:sans-serif; font-weight: bold;&#10;                      font-size:0.28px;&#10;                      vector-effect: non-scaling-stroke;" transform="translate(-5e-05, 0)">topic:noul0 … topic:noul3</text></g><g /></g></g><g style="fill: #82d3b6;stroke: #52514e;stroke-width: 1.2000000000000002;" transform="matrix(1.0, 0.0, 0.0, 1.0, 21.2, 1.44)"><path d="M 0.0 0.0 L 4.2 0.0 L 4.2 0.72 L 0.0 0.72 L 0.0 0.0 Z" style="vector-effect: non-scaling-stroke;" /></g><g transform="matrix(1.0, 0.0, 0.0, 1.0, 23.3, 1.8)"><g><g style="fill: #0b0b0b;stroke: black;stroke-width: 0.0;" transform="matrix(1.0, 0.0, 0.0, 1.0, 0.0, 0.0)"><text style="text-align:center; text-anchor:middle; dominant-baseline:middle;&#10;                      font-family:sans-serif; font-weight: bold;&#10;                      font-size:0.3px;&#10;                      vector-effect: non-scaling-stroke;" transform="translate(-5e-05, 0)">… is Business.</text></g><g /></g></g><g transform="matrix(1.0, 0.0, 0.0, 1.0, 19.997, 1.8)"><g><g style="fill: #898781;stroke: black;stroke-width: 0.0;" transform="matrix(1.0, 0.0, 0.0, 1.0, 0.0, 0.0)"><text style="text-align:center; text-anchor:middle; dominant-baseline:middle;&#10;                      font-family:sans-serif; font-weight: bold;&#10;                      font-size:0.26px;&#10;                      vector-effect: non-scaling-stroke;" transform="translate(-5e-05, 0)">noul0</text></g><g /></g></g><g style="fill: #f6bba4;stroke: #52514e;stroke-width: 1.2000000000000002;" transform="matrix(1.0, 0.0, 0.0, 1.0, 21.2, 2.3400000000000003)"><path d="M 0.0 0.0 L 4.2 0.0 L 4.2 0.72 L 0.0 0.72 L 0.0 0.0 Z" style="vector-effect: non-scaling-stroke;" /></g><g transform="matrix(1.0, 0.0, 0.0, 1.0, 23.3, 2.7)"><g><g style="fill: #0b0b0b;stroke: black;stroke-width: 0.0;" transform="matrix(1.0, 0.0, 0.0, 1.0, 0.0, 0.0)"><text style="text-align:center; text-anchor:middle; dominant-baseline:middle;&#10;                      font-family:sans-serif; font-weight: bold;&#10;                      font-size:0.3px;&#10;                      vector-effect: non-scaling-stroke;" transform="translate(-5e-05, 0)">… is World.</text></g><g /></g></g><g transform="matrix(1.0, 0.0, 0.0, 1.0, 19.997, 2.7)"><g><g style="fill: #898781;stroke: black;stroke-width: 0.0;" transform="matrix(1.0, 0.0, 0.0, 1.0, 0.0, 0.0)"><text style="text-align:center; text-anchor:middle; dominant-baseline:middle;&#10;                      font-family:sans-serif; font-weight: bold;&#10;                      font-size:0.26px;&#10;                      vector-effect: non-scaling-stroke;" transform="translate(-5e-05, 0)">noul1</text></g><g /></g></g><g style="fill: #f6bba4;stroke: #52514e;stroke-width: 1.2000000000000002;" transform="matrix(1.0, 0.0, 0.0, 1.0, 21.2, 3.24)"><path d="M 0.0 0.0 L 4.2 0.0 L 4.2 0.72 L 0.0 0.72 L 0.0 0.0 Z" style="vector-effect: non-scaling-stroke;" /></g><g transform="matrix(1.0, 0.0, 0.0, 1.0, 23.3, 3.6)"><g><g style="fill: #0b0b0b;stroke: black;stroke-width: 0.0;" transform="matrix(1.0, 0.0, 0.0, 1.0, 0.0, 0.0)"><text style="text-align:center; text-anchor:middle; dominant-baseline:middle;&#10;                      font-family:sans-serif; font-weight: bold;&#10;                      font-size:0.3px;&#10;                      vector-effect: non-scaling-stroke;" transform="translate(-5e-05, 0)">… is Sports.</text></g><g /></g></g><g transform="matrix(1.0, 0.0, 0.0, 1.0, 19.997, 3.6)"><g><g style="fill: #898781;stroke: black;stroke-width: 0.0;" transform="matrix(1.0, 0.0, 0.0, 1.0, 0.0, 0.0)"><text style="text-align:center; text-anchor:middle; dominant-baseline:middle;&#10;                      font-family:sans-serif; font-weight: bold;&#10;                      font-size:0.26px;&#10;                      vector-effect: non-scaling-stroke;" transform="translate(-5e-05, 0)">noul2</text></g><g /></g></g><g style="fill: #f6bba4;stroke: #52514e;stroke-width: 1.2000000000000002;" transform="matrix(1.0, 0.0, 0.0, 1.0, 21.2, 4.14)"><path d="M 0.0 0.0 L 4.2 0.0 L 4.2 0.72 L 0.0 0.72 L 0.0 0.0 Z" style="vector-effect: non-scaling-stroke;" /></g><g transform="matrix(1.0, 0.0, 0.0, 1.0, 23.3, 4.5)"><g><g style="fill: #0b0b0b;stroke: black;stroke-width: 0.0;" transform="matrix(1.0, 0.0, 0.0, 1.0, 0.0, 0.0)"><text style="text-align:center; text-anchor:middle; dominant-baseline:middle;&#10;                      font-family:sans-serif; font-weight: bold;&#10;                      font-size:0.3px;&#10;                      vector-effect: non-scaling-stroke;" transform="translate(-5e-05, 0)">… is Sci/Tech.</text></g><g /></g></g><g transform="matrix(1.0, 0.0, 0.0, 1.0, 19.997, 4.5)"><g><g style="fill: #898781;stroke: black;stroke-width: 0.0;" transform="matrix(1.0, 0.0, 0.0, 1.0, 0.0, 0.0)"><text style="text-align:center; text-anchor:middle; dominant-baseline:middle;&#10;                      font-family:sans-serif; font-weight: bold;&#10;                      font-size:0.26px;&#10;                      vector-effect: non-scaling-stroke;" transform="translate(-5e-05, 0)">noul3</text></g><g /></g></g><g transform="matrix(1.0, 0.0, 0.0, 1.0, 22.7, 5.5)"><g><g style="fill: #52514e;stroke: black;stroke-width: 0.0;" transform="matrix(1.0, 0.0, 0.0, 1.0, 0.0, 0.0)"><text style="text-align:center; text-anchor:middle; dominant-baseline:middle;&#10;                      font-family:sans-serif; font-weight: bold;&#10;                      font-size:0.26px;&#10;                      vector-effect: non-scaling-stroke;" transform="translate(-5e-05, 0)">"The answer to “What is this article about?” is …"</text></g><g /></g></g><g transform="matrix(1.0, 0.0, 0.0, 1.0, 31.3, 0.6)"><g><g style="fill: #0b0b0b;stroke: black;stroke-width: 0.0;" transform="matrix(1.0, 0.0, 0.0, 1.0, 0.0, 0.0)"><text style="text-align:center; text-anchor:middle; dominant-baseline:middle;&#10;                      font-family:sans-serif; font-weight: bold;&#10;                      font-size:0.34px;&#10;                      vector-effect: non-scaling-stroke;" transform="translate(-5e-05, 0)">add_none_of_these: no gold option</text></g><g /></g></g><g transform="matrix(1.0, 0.0, 0.0, 1.0, 31.3, 1.05)"><g><g style="fill: #52514e;stroke: black;stroke-width: 0.0;" transform="matrix(1.0, 0.0, 0.0, 1.0, 0.0, 0.0)"><text style="text-align:center; text-anchor:middle; dominant-baseline:middle;&#10;                      font-family:sans-serif; font-weight: bold;&#10;                      font-size:0.28px;&#10;                      vector-effect: non-scaling-stroke;" transform="translate(-5e-05, 0)">topic:none</text></g><g /></g></g><g style="fill: #ffffff;stroke: #52514e;stroke-width: 1.2000000000000002;" transform="matrix(1.0, 0.0, 0.0, 1.0, 29.6, 1.44)"><path d="M 0.0 0.0 L 3.4 0.0 L 3.4 0.72 L 0.0 0.72 L 0.0 0.0 Z" style="vector-effect: non-scaling-stroke;" /></g><g transform="matrix(1.0, 0.0, 0.0, 1.0, 31.3, 1.8)"><g><g style="fill: #0b0b0b;stroke: black;stroke-width: 0.0;" transform="matrix(1.0, 0.0, 0.0, 1.0, 0.0, 0.0)"><text style="text-align:center; text-anchor:middle; dominant-baseline:middle;&#10;                      font-family:sans-serif; font-weight: bold;&#10;                      font-size:0.3px;&#10;                      vector-effect: non-scaling-stroke;" transform="translate(-5e-05, 0)">World</text></g><g /></g></g><g style="fill: #ffffff;stroke: #52514e;stroke-width: 1.2000000000000002;" transform="matrix(1.0, 0.0, 0.0, 1.0, 29.6, 2.3400000000000003)"><path d="M 0.0 0.0 L 3.4 0.0 L 3.4 0.72 L 0.0 0.72 L 0.0 0.0 Z" style="vector-effect: non-scaling-stroke;" /></g><g transform="matrix(1.0, 0.0, 0.0, 1.0, 31.3, 2.7)"><g><g style="fill: #0b0b0b;stroke: black;stroke-width: 0.0;" transform="matrix(1.0, 0.0, 0.0, 1.0, 0.0, 0.0)"><text style="text-align:center; text-anchor:middle; dominant-baseline:middle;&#10;                      font-family:sans-serif; font-weight: bold;&#10;                      font-size:0.3px;&#10;                      vector-effect: non-scaling-stroke;" transform="translate(-5e-05, 0)">Sports</text></g><g /></g></g><g style="fill: #ffffff;stroke: #52514e;stroke-width: 1.2000000000000002;" transform="matrix(1.0, 0.0, 0.0, 1.0, 29.6, 3.24)"><path d="M 0.0 0.0 L 3.4 0.0 L 3.4 0.72 L 0.0 0.72 L 0.0 0.0 Z" style="vector-effect: non-scaling-stroke;" /></g><g transform="matrix(1.0, 0.0, 0.0, 1.0, 31.3, 3.6)"><g><g style="fill: #0b0b0b;stroke: black;stroke-width: 0.0;" transform="matrix(1.0, 0.0, 0.0, 1.0, 0.0, 0.0)"><text style="text-align:center; text-anchor:middle; dominant-baseline:middle;&#10;                      font-family:sans-serif; font-weight: bold;&#10;                      font-size:0.3px;&#10;                      vector-effect: non-scaling-stroke;" transform="translate(-5e-05, 0)">Sci/Tech</text></g><g /></g></g><g style="fill: #f3f2ee;stroke: #52514e;stroke-width: 1.2000000000000002;" transform="matrix(1.0, 0.0, 0.0, 1.0, 29.6, 4.14)"><path d="M 0.0 0.0 L 3.4 0.0 L 3.4 0.72 L 0.0 0.72 L 0.0 0.0 Z" style="vector-effect: non-scaling-stroke;" /></g><g transform="matrix(1.0, 0.0, 0.0, 1.0, 31.3, 4.5)"><g><g style="fill: #0b0b0b;stroke: black;stroke-width: 0.0;" transform="matrix(1.0, 0.0, 0.0, 1.0, 0.0, 0.0)"><text style="text-align:center; text-anchor:middle; dominant-baseline:middle;&#10;                      font-family:sans-serif; font-weight: bold;&#10;                      font-size:0.3px;&#10;                      vector-effect: non-scaling-stroke;" transform="translate(-5e-05, 0)">gold: none of these</text></g><g /></g></g><g transform="matrix(1.0, 0.0, 0.0, 1.0, 31.3, 5.5)"><g><g style="fill: #52514e;stroke: black;stroke-width: 0.0;" transform="matrix(1.0, 0.0, 0.0, 1.0, 0.0, 0.0)"><text style="text-align:center; text-anchor:middle; dominant-baseline:middle;&#10;                      font-family:sans-serif; font-weight: bold;&#10;                      font-size:0.26px;&#10;                      vector-effect: non-scaling-stroke;" transform="translate(-5e-05, 0)">answerable: False, for the act head</text></g><g /></g></g><g transform="matrix(1.0, 0.0, 0.0, 1.0, 14.099999999999998, 8.0)"><g><g style="fill: #0b0b0b;stroke: black;stroke-width: 0.0;" transform="matrix(1.0, 0.0, 0.0, 1.0, 0.0, 0.0)"><text style="text-align:center; text-anchor:middle; dominant-baseline:middle;&#10;                      font-family:sans-serif; font-weight: bold;&#10;                      font-size:0.34px;&#10;                      vector-effect: non-scaling-stroke;" transform="translate(-5e-05, 0)">sentiment: a choice</text></g><g /></g></g><g transform="matrix(1.0, 0.0, 0.0, 1.0, 14.099999999999998, 8.45)"><g><g style="fill: #52514e;stroke: black;stroke-width: 0.0;" transform="matrix(1.0, 0.0, 0.0, 1.0, 0.0, 0.0)"><text style="text-align:center; text-anchor:middle; dominant-baseline:middle;&#10;                      font-family:sans-serif; font-weight: bold;&#10;                      font-size:0.28px;&#10;                      vector-effect: non-scaling-stroke;" transform="translate(-5e-05, 0)">three labels, in no order</text></g><g /></g></g><g style="fill: #ffffff;stroke: #52514e;stroke-width: 1.2000000000000002;" transform="matrix(1.0, 0.0, 0.0, 1.0, 12.399999999999999, 8.840000000000002)"><path d="M 0.0 0.0 L 3.4 0.0 L 3.4 0.72 L 0.0 0.72 L 0.0 0.0 Z" style="vector-effect: non-scaling-stroke;" /></g><g transform="matrix(1.0, 0.0, 0.0, 1.0, 14.099999999999998, 9.200000000000001)"><g><g style="fill: #0b0b0b;stroke: black;stroke-width: 0.0;" transform="matrix(1.0, 0.0, 0.0, 1.0, 0.0, 0.0)"><text style="text-align:center; text-anchor:middle; dominant-baseline:middle;&#10;                      font-family:sans-serif; font-weight: bold;&#10;                      font-size:0.3px;&#10;                      vector-effect: non-scaling-stroke;" transform="translate(-5e-05, 0)">negative</text></g><g /></g></g><g style="fill: #82d3b6;stroke: #52514e;stroke-width: 1.2000000000000002;" transform="matrix(1.0, 0.0, 0.0, 1.0, 12.399999999999999, 9.740000000000002)"><path d="M 0.0 0.0 L 3.4 0.0 L 3.4 0.72 L 0.0 0.72 L 0.0 0.0 Z" style="vector-effect: non-scaling-stroke;" /></g><g transform="matrix(1.0, 0.0, 0.0, 1.0, 14.099999999999998, 10.100000000000001)"><g><g style="fill: #0b0b0b;stroke: black;stroke-width: 0.0;" transform="matrix(1.0, 0.0, 0.0, 1.0, 0.0, 0.0)"><text style="text-align:center; text-anchor:middle; dominant-baseline:middle;&#10;                      font-family:sans-serif; font-weight: bold;&#10;                      font-size:0.3px;&#10;                      vector-effect: non-scaling-stroke;" transform="translate(-5e-05, 0)">neutral</text></g><g /></g></g><g style="fill: #ffffff;stroke: #52514e;stroke-width: 1.2000000000000002;" transform="matrix(1.0, 0.0, 0.0, 1.0, 12.399999999999999, 10.640000000000002)"><path d="M 0.0 0.0 L 3.4 0.0 L 3.4 0.72 L 0.0 0.72 L 0.0 0.0 Z" style="vector-effect: non-scaling-stroke;" /></g><g transform="matrix(1.0, 0.0, 0.0, 1.0, 14.099999999999998, 11.000000000000002)"><g><g style="fill: #0b0b0b;stroke: black;stroke-width: 0.0;" transform="matrix(1.0, 0.0, 0.0, 1.0, 0.0, 0.0)"><text style="text-align:center; text-anchor:middle; dominant-baseline:middle;&#10;                      font-family:sans-serif; font-weight: bold;&#10;                      font-size:0.3px;&#10;                      vector-effect: non-scaling-stroke;" transform="translate(-5e-05, 0)">positive</text></g><g /></g></g><g transform="matrix(1.0, 0.0, 0.0, 1.0, 22.7, 8.0)"><g><g style="fill: #0b0b0b;stroke: black;stroke-width: 0.0;" transform="matrix(1.0, 0.0, 0.0, 1.0, 0.0, 0.0)"><text style="text-align:center; text-anchor:middle; dominant-baseline:middle;&#10;                      font-family:sans-serif; font-weight: bold;&#10;                      font-size:0.34px;&#10;                      vector-effect: non-scaling-stroke;" transform="translate(-5e-05, 0)">add_score: ordered levels</text></g><g /></g></g><g transform="matrix(1.0, 0.0, 0.0, 1.0, 22.7, 8.45)"><g><g style="fill: #52514e;stroke: black;stroke-width: 0.0;" transform="matrix(1.0, 0.0, 0.0, 1.0, 0.0, 0.0)"><text style="text-align:center; text-anchor:middle; dominant-baseline:middle;&#10;                      font-family:sans-serif; font-weight: bold;&#10;                      font-size:0.28px;&#10;                      vector-effect: non-scaling-stroke;" transform="translate(-5e-05, 0)">sentiment:score</text></g><g /></g></g><g style="fill: #ffffff;stroke: #52514e;stroke-width: 1.2000000000000002;" transform="matrix(1.0, 0.0, 0.0, 1.0, 19.0, 9.440000000000001)"><path d="M 0.0 0.0 L 2.3 0.0 L 2.3 0.72 L 0.0 0.72 L 0.0 0.0 Z" style="vector-effect: non-scaling-stroke;" /></g><g transform="matrix(1.0, 0.0, 0.0, 1.0, 20.15, 9.8)"><g><g style="fill: #0b0b0b;stroke: black;stroke-width: 0.0;" transform="matrix(1.0, 0.0, 0.0, 1.0, 0.0, 0.0)"><text style="text-align:center; text-anchor:middle; dominant-baseline:middle;&#10;                      font-family:sans-serif; font-weight: bold;&#10;                      font-size:0.3px;&#10;                      vector-effect: non-scaling-stroke;" transform="translate(-5e-05, 0)">negative</text></g><g /></g></g><g transform="matrix(1.0, 0.0, 0.0, 1.0, 20.15, 9.180000000000001)"><g><g style="fill: #898781;stroke: black;stroke-width: 0.0;" transform="matrix(1.0, 0.0, 0.0, 1.0, 0.0, 0.0)"><text style="text-align:center; text-anchor:middle; dominant-baseline:middle;&#10;                      font-family:sans-serif; font-weight: bold;&#10;                      font-size:0.26px;&#10;                      vector-effect: non-scaling-stroke;" transform="translate(-5e-05, 0)">0</text></g><g /></g></g><g style="fill: #82d3b6;stroke: #52514e;stroke-width: 1.2000000000000002;" transform="matrix(1.0, 0.0, 0.0, 1.0, 21.55, 9.440000000000001)"><path d="M 0.0 0.0 L 2.3 0.0 L 2.3 0.72 L 0.0 0.72 L 0.0 0.0 Z" style="vector-effect: non-scaling-stroke;" /></g><g transform="matrix(1.0, 0.0, 0.0, 1.0, 22.7, 9.8)"><g><g style="fill: #0b0b0b;stroke: black;stroke-width: 0.0;" transform="matrix(1.0, 0.0, 0.0, 1.0, 0.0, 0.0)"><text style="text-align:center; text-anchor:middle; dominant-baseline:middle;&#10;                      font-family:sans-serif; font-weight: bold;&#10;                      font-size:0.3px;&#10;                      vector-effect: non-scaling-stroke;" transform="translate(-5e-05, 0)">neutral</text></g><g /></g></g><g transform="matrix(1.0, 0.0, 0.0, 1.0, 22.7, 9.180000000000001)"><g><g style="fill: #898781;stroke: black;stroke-width: 0.0;" transform="matrix(1.0, 0.0, 0.0, 1.0, 0.0, 0.0)"><text style="text-align:center; text-anchor:middle; dominant-baseline:middle;&#10;                      font-family:sans-serif; font-weight: bold;&#10;                      font-size:0.26px;&#10;                      vector-effect: non-scaling-stroke;" transform="translate(-5e-05, 0)">1</text></g><g /></g></g><g style="fill: #ffffff;stroke: #52514e;stroke-width: 1.2000000000000002;" transform="matrix(1.0, 0.0, 0.0, 1.0, 24.1, 9.440000000000001)"><path d="M 0.0 0.0 L 2.3 0.0 L 2.3 0.72 L 0.0 0.72 L 0.0 0.0 Z" style="vector-effect: non-scaling-stroke;" /></g><g transform="matrix(1.0, 0.0, 0.0, 1.0, 25.25, 9.8)"><g><g style="fill: #0b0b0b;stroke: black;stroke-width: 0.0;" transform="matrix(1.0, 0.0, 0.0, 1.0, 0.0, 0.0)"><text style="text-align:center; text-anchor:middle; dominant-baseline:middle;&#10;                      font-family:sans-serif; font-weight: bold;&#10;                      font-size:0.3px;&#10;                      vector-effect: non-scaling-stroke;" transform="translate(-5e-05, 0)">positive</text></g><g /></g></g><g transform="matrix(1.0, 0.0, 0.0, 1.0, 25.25, 9.180000000000001)"><g><g style="fill: #898781;stroke: black;stroke-width: 0.0;" transform="matrix(1.0, 0.0, 0.0, 1.0, 0.0, 0.0)"><text style="text-align:center; text-anchor:middle; dominant-baseline:middle;&#10;                      font-family:sans-serif; font-weight: bold;&#10;                      font-size:0.26px;&#10;                      vector-effect: non-scaling-stroke;" transform="translate(-5e-05, 0)">2</text></g><g /></g></g><g transform="matrix(1.0, 0.0, 0.0, 1.0, 22.7, 10.8)"><g><g style="fill: #52514e;stroke: black;stroke-width: 0.0;" transform="matrix(1.0, 0.0, 0.0, 1.0, 0.0, 0.0)"><text style="text-align:center; text-anchor:middle; dominant-baseline:middle;&#10;                      font-family:sans-serif; font-weight: bold;&#10;                      font-size:0.28px;&#10;                      vector-effect: non-scaling-stroke;" transform="translate(-5e-05, 0)">gold: level 1, neutral</text></g><g /></g></g><g transform="matrix(1.0, 0.0, 0.0, 1.0, 31.3, 8.0)"><g><g style="fill: #0b0b0b;stroke: black;stroke-width: 0.0;" transform="matrix(1.0, 0.0, 0.0, 1.0, 0.0, 0.0)"><text style="text-align:center; text-anchor:middle; dominant-baseline:middle;&#10;                      font-family:sans-serif; font-weight: bold;&#10;                      font-size:0.34px;&#10;                      vector-effect: non-scaling-stroke;" transform="translate(-5e-05, 0)">add_thresholds: this level or higher?</text></g><g /></g></g><g transform="matrix(1.0, 0.0, 0.0, 1.0, 31.3, 8.45)"><g><g style="fill: #52514e;stroke: black;stroke-width: 0.0;" transform="matrix(1.0, 0.0, 0.0, 1.0, 0.0, 0.0)"><text style="text-align:center; text-anchor:middle; dominant-baseline:middle;&#10;                      font-family:sans-serif; font-weight: bold;&#10;                      font-size:0.28px;&#10;                      vector-effect: non-scaling-stroke;" transform="translate(-5e-05, 0)">sentiment:score:atleast1, :atleast2</text></g><g /></g></g><g style="fill: #ffffff;stroke: #52514e;stroke-width: 1.2000000000000002;" transform="matrix(1.0, 0.0, 0.0, 1.0, 27.6, 9.440000000000001)"><path d="M 0.0 0.0 L 2.3 0.0 L 2.3 0.72 L 0.0 0.72 L 0.0 0.0 Z" style="vector-effect: non-scaling-stroke;" /></g><g transform="matrix(1.0, 0.0, 0.0, 1.0, 28.75, 9.8)"><g><g style="fill: #0b0b0b;stroke: black;stroke-width: 0.0;" transform="matrix(1.0, 0.0, 0.0, 1.0, 0.0, 0.0)"><text style="text-align:center; text-anchor:middle; dominant-baseline:middle;&#10;                      font-family:sans-serif; font-weight: bold;&#10;                      font-size:0.3px;&#10;                      vector-effect: non-scaling-stroke;" transform="translate(-5e-05, 0)">negative</text></g><g /></g></g><g transform="matrix(1.0, 0.0, 0.0, 1.0, 28.75, 9.180000000000001)"><g><g style="fill: #898781;stroke: black;stroke-width: 0.0;" transform="matrix(1.0, 0.0, 0.0, 1.0, 0.0, 0.0)"><text style="text-align:center; text-anchor:middle; dominant-baseline:middle;&#10;                      font-family:sans-serif; font-weight: bold;&#10;                      font-size:0.26px;&#10;                      vector-effect: non-scaling-stroke;" transform="translate(-5e-05, 0)">0</text></g><g /></g></g><g style="fill: #ffffff;stroke: #52514e;stroke-width: 1.2000000000000002;" transform="matrix(1.0, 0.0, 0.0, 1.0, 30.150000000000002, 9.440000000000001)"><path d="M 0.0 0.0 L 2.3 0.0 L 2.3 0.72 L 0.0 0.72 L 0.0 0.0 Z" style="vector-effect: non-scaling-stroke;" /></g><g transform="matrix(1.0, 0.0, 0.0, 1.0, 31.3, 9.8)"><g><g style="fill: #0b0b0b;stroke: black;stroke-width: 0.0;" transform="matrix(1.0, 0.0, 0.0, 1.0, 0.0, 0.0)"><text style="text-align:center; text-anchor:middle; dominant-baseline:middle;&#10;                      font-family:sans-serif; font-weight: bold;&#10;                      font-size:0.3px;&#10;                      vector-effect: non-scaling-stroke;" transform="translate(-5e-05, 0)">neutral</text></g><g /></g></g><g transform="matrix(1.0, 0.0, 0.0, 1.0, 31.3, 9.180000000000001)"><g><g style="fill: #898781;stroke: black;stroke-width: 0.0;" transform="matrix(1.0, 0.0, 0.0, 1.0, 0.0, 0.0)"><text style="text-align:center; text-anchor:middle; dominant-baseline:middle;&#10;                      font-family:sans-serif; font-weight: bold;&#10;                      font-size:0.26px;&#10;                      vector-effect: non-scaling-stroke;" transform="translate(-5e-05, 0)">1</text></g><g /></g></g><g style="fill: #ffffff;stroke: #52514e;stroke-width: 1.2000000000000002;" transform="matrix(1.0, 0.0, 0.0, 1.0, 32.7, 9.440000000000001)"><path d="M 0.0 0.0 L 2.3 0.0 L 2.3 0.72 L 0.0 0.72 L 0.0 0.0 Z" style="vector-effect: non-scaling-stroke;" /></g><g transform="matrix(1.0, 0.0, 0.0, 1.0, 33.85, 9.8)"><g><g style="fill: #0b0b0b;stroke: black;stroke-width: 0.0;" transform="matrix(1.0, 0.0, 0.0, 1.0, 0.0, 0.0)"><text style="text-align:center; text-anchor:middle; dominant-baseline:middle;&#10;                      font-family:sans-serif; font-weight: bold;&#10;                      font-size:0.3px;&#10;                      vector-effect: non-scaling-stroke;" transform="translate(-5e-05, 0)">positive</text></g><g /></g></g><g transform="matrix(1.0, 0.0, 0.0, 1.0, 33.85, 9.180000000000001)"><g><g style="fill: #898781;stroke: black;stroke-width: 0.0;" transform="matrix(1.0, 0.0, 0.0, 1.0, 0.0, 0.0)"><text style="text-align:center; text-anchor:middle; dominant-baseline:middle;&#10;                      font-family:sans-serif; font-weight: bold;&#10;                      font-size:0.26px;&#10;                      vector-effect: non-scaling-stroke;" transform="translate(-5e-05, 0)">2</text></g><g /></g></g><g style="fill: #ffffff;stroke: #52514e;stroke-width: 1.2000000000000002;" transform="matrix(1.0, 0.0, 0.0, 1.0, 27.6, 10.424999999999999)"><path d="M 0.0 0.0 L 7.399999999999999 0.0 L 7.399999999999999 0.55 L 0.0 0.55 L 0.0 0.0 Z" style="vector-effect: non-scaling-stroke;" /></g><g style="fill: #82d3b6;stroke: #52514e;stroke-width: 1.2000000000000002;" transform="matrix(1.0, 0.0, 0.0, 1.0, 30.150000000000006, 10.424999999999999)"><path d="M 0.0 0.0 L 4.849999999999998 0.0 L 4.849999999999998 0.55 L 0.0 0.55 L 0.0 0.0 Z" style="vector-effect: non-scaling-stroke;" /></g><g transform="matrix(1.0, 0.0, 0.0, 1.0, 31.3, 11.25)"><g><g style="fill: #52514e;stroke: black;stroke-width: 0.0;" transform="matrix(1.0, 0.0, 0.0, 1.0, 0.0, 0.0)"><text style="text-align:center; text-anchor:middle; dominant-baseline:middle;&#10;                      font-family:sans-serif; font-weight: bold;&#10;                      font-size:0.26px;&#10;                      vector-effect: non-scaling-stroke;" transform="translate(-5e-05, 0)">neutral or higher? true</text></g><g /></g></g><g style="fill: #ffffff;stroke: #52514e;stroke-width: 1.2000000000000002;" transform="matrix(1.0, 0.0, 0.0, 1.0, 27.6, 11.625)"><path d="M 0.0 0.0 L 7.399999999999999 0.0 L 7.399999999999999 0.55 L 0.0 0.55 L 0.0 0.0 Z" style="vector-effect: non-scaling-stroke;" /></g><g style="fill: #f6bba4;stroke: #52514e;stroke-width: 1.2000000000000002;" transform="matrix(1.0, 0.0, 0.0, 1.0, 32.7, 11.625)"><path d="M 0.0 0.0 L 2.299999999999997 0.0 L 2.299999999999997 0.55 L 0.0 0.55 L 0.0 0.0 Z" style="vector-effect: non-scaling-stroke;" /></g><g transform="matrix(1.0, 0.0, 0.0, 1.0, 31.3, 12.450000000000001)"><g><g style="fill: #52514e;stroke: black;stroke-width: 0.0;" transform="matrix(1.0, 0.0, 0.0, 1.0, 0.0, 0.0)"><text style="text-align:center; text-anchor:middle; dominant-baseline:middle;&#10;                      font-family:sans-serif; font-weight: bold;&#10;                      font-size:0.26px;&#10;                      vector-effect: non-scaling-stroke;" transform="translate(-5e-05, 0)">positive or higher? false</text></g><g /></g></g><g style="fill: #82d3b6;stroke: #52514e;stroke-width: 1.2000000000000002;" transform="matrix(1.0, 0.0, 0.0, 1.0, 11.799999999999999, 13.45)"><path d="M 0.0 0.0 L 0.5 0.0 L 0.5 0.5 L 0.0 0.5 L 0.0 0.0 Z" style="vector-effect: non-scaling-stroke;" /></g><g transform="matrix(1.0, 0.0, 0.0, 1.0, 14.681999999999999, 13.7)"><g><g style="fill: #52514e;stroke: black;stroke-width: 0.0;" transform="matrix(1.0, 0.0, 0.0, 1.0, 0.0, 0.0)"><text style="text-align:center; text-anchor:middle; dominant-baseline:middle;&#10;                      font-family:sans-serif; font-weight: bold;&#10;                      font-size:0.3px;&#10;                      vector-effect: non-scaling-stroke;" transform="translate(-5e-05, 0)">true, or the gold option</text></g><g /></g></g><g style="fill: #f6bba4;stroke: #52514e;stroke-width: 1.2000000000000002;" transform="matrix(1.0, 0.0, 0.0, 1.0, 17.664, 13.45)"><path d="M 0.0 0.0 L 0.5 0.0 L 0.5 0.5 L 0.0 0.5 L 0.0 0.0 Z" style="vector-effect: non-scaling-stroke;" /></g><g transform="matrix(1.0, 0.0, 0.0, 1.0, 18.779, 13.7)"><g><g style="fill: #52514e;stroke: black;stroke-width: 0.0;" transform="matrix(1.0, 0.0, 0.0, 1.0, 0.0, 0.0)"><text style="text-align:center; text-anchor:middle; dominant-baseline:middle;&#10;                      font-family:sans-serif; font-weight: bold;&#10;                      font-size:0.3px;&#10;                      vector-effect: non-scaling-stroke;" transform="translate(-5e-05, 0)">false</text></g><g /></g></g><g style="fill: #ffffff;stroke: #52514e;stroke-width: 1.2000000000000002;" transform="matrix(1.0, 0.0, 0.0, 1.0, 19.994, 13.45)"><path d="M 0.0 0.0 L 0.5 0.0 L 0.5 0.5 L 0.0 0.5 L 0.0 0.0 Z" style="vector-effect: non-scaling-stroke;" /></g><g transform="matrix(1.0, 0.0, 0.0, 1.0, 21.480999999999998, 13.7)"><g><g style="fill: #52514e;stroke: black;stroke-width: 0.0;" transform="matrix(1.0, 0.0, 0.0, 1.0, 0.0, 0.0)"><text style="text-align:center; text-anchor:middle; dominant-baseline:middle;&#10;                      font-family:sans-serif; font-weight: bold;&#10;                      font-size:0.3px;&#10;                      vector-effect: non-scaling-stroke;" transform="translate(-5e-05, 0)">an option</text></g><g /></g></g><g style="fill: #f3f2ee;stroke: #52514e;stroke-width: 1.2000000000000002;" transform="matrix(1.0, 0.0, 0.0, 1.0, 23.067999999999998, 13.45)"><path d="M 0.0 0.0 L 0.5 0.0 L 0.5 0.5 L 0.0 0.5 L 0.0 0.0 Z" style="vector-effect: non-scaling-stroke;" /></g><g transform="matrix(1.0, 0.0, 0.0, 1.0, 25.391999999999996, 13.7)"><g><g style="fill: #52514e;stroke: black;stroke-width: 0.0;" transform="matrix(1.0, 0.0, 0.0, 1.0, 0.0, 0.0)"><text style="text-align:center; text-anchor:middle; dominant-baseline:middle;&#10;                      font-family:sans-serif; font-weight: bold;&#10;                      font-size:0.3px;&#10;                      vector-effect: non-scaling-stroke;" transform="translate(-5e-05, 0)">no option is right</text></g><g /></g></g></g></g><g /></g></g></g></g></svg>