<?xml version="1.0" encoding="utf-8" ?>
<svg viewBox="0 0 983 282" baseProfile="full" height="282" version="1.1" width="983" xmlns="http://www.w3.org/2000/svg" xmlns:ev="http://www.w3.org/2001/xml-events" xmlns:xlink="http://www.w3.org/1999/xlink"><defs><marker id="arrow" markerHeight="3.5" markerWidth="5" orient="auto" refX="5.0" refY="1.7"><polygon points="0,0 5,1.75 0,3.5" /></marker></defs><g style="fill:white;"><g transform="matrix(1.0, 0.0, 0.0, 1.0, 491.99999999999994, 141.0)"><g transform="matrix(28.57142857142857, 0.0, 0.0, 28.57142857142857, 0.0, 0.0)"><g><g transform="matrix(1.0, 0.0, 0.0, 1.0, -8.600000000000001, -2.2)"><g><g style="fill: #ffffff;stroke: black;stroke-width: 0.0;" transform="matrix(1.0, 0.0, 0.0, 1.0, -7.799999999999997, -2.5)"><path d="M 0.0 0.0 L 32.8 0.0 L 32.8 9.4 L 0.0 9.4 L 0.0 0.0 Z" style="vector-effect: non-scaling-stroke;" /></g><g transform="matrix(1.0, 0.0, 0.0, 1.0, 5.6, -1.6)"><g><g style="fill: #0b0b0b;stroke: black;stroke-width: 0.0;" transform="matrix(1.0, 0.0, 0.0, 1.0, 0.0, 0.0)"><text style="text-align:center; text-anchor:middle; dominant-baseline:middle;&#10;                      font-family:sans-serif; font-weight: bold;&#10;                      font-size:0.34px;&#10;                      vector-effect: non-scaling-stroke;" transform="translate(-5e-05, 0)">operations="offered" (the default)</text></g><g /></g></g><g style="fill: #ffffff;stroke: #52514e;stroke-width: 1.2000000000000002;" transform="matrix(1.0, 0.0, 0.0, 1.0, 0.7999999999999998, -0.35)"><path d="M 0.0 0.0 L 3.0 0.0 L 3.0 0.7 L 0.0 0.7 L 0.0 0.0 Z" style="vector-effect: non-scaling-stroke;" /></g><g transform="matrix(1.0, 0.0, 0.0, 1.0, 2.3, 0.0)"><g><g style="fill: #0b0b0b;stroke: black;stroke-width: 0.0;" transform="matrix(1.0, 0.0, 0.0, 1.0, 0.0, 0.0)"><text style="text-align:center; text-anchor:middle; dominant-baseline:middle;&#10;                      font-family:sans-serif; font-weight: bold;&#10;                      font-size:0.27px;&#10;                      vector-effect: non-scaling-stroke;" transform="translate(-5e-05, 0)">CLICK</text></g><g /></g></g><g style="fill: #82d3b6;stroke: #52514e;stroke-width: 1.2000000000000002;" transform="matrix(1.0, 0.0, 0.0, 1.0, 4.1, -0.35)"><path d="M 0.0 0.0 L 3.0 0.0 L 3.0 0.7 L 0.0 0.7 L 0.0 0.0 Z" style="vector-effect: non-scaling-stroke;" /></g><g transform="matrix(1.0, 0.0, 0.0, 1.0, 5.6, 0.0)"><g><g style="fill: #0b0b0b;stroke: black;stroke-width: 0.0;" transform="matrix(1.0, 0.0, 0.0, 1.0, 0.0, 0.0)"><text style="text-align:center; text-anchor:middle; dominant-baseline:middle;&#10;                      font-family:sans-serif; font-weight: bold;&#10;                      font-size:0.27px;&#10;                      vector-effect: non-scaling-stroke;" transform="translate(-5e-05, 0)">TYPE_TEXT</text></g><g /></g></g><g transform="matrix(1.0, 0.0, 0.0, 1.0, 5.6, 0.62)"><g><g style="fill: #52514e;stroke: black;stroke-width: 0.0;" transform="matrix(1.0, 0.0, 0.0, 1.0, 0.0, 0.0)"><text style="text-align:center; text-anchor:middle; dominant-baseline:middle;&#10;                      font-family:sans-serif; font-weight: bold;&#10;                      font-size:0.24px;&#10;                      vector-effect: non-scaling-stroke;" transform="translate(-5e-05, 0)">▲ the rule</text></g><g /></g></g><g style="fill: #f3f2ee;stroke: #898781;stroke-width: 1.2000000000000002;" transform="matrix(1.0, 0.0, 0.0, 1.0, 7.399999999999999, -0.35)"><path d="M 0.0 0.0 L 3.0 0.0 L 3.0 0.7 L 0.0 0.7 L 0.0 0.0 Z" style="vector-effect: non-scaling-stroke;" /></g><g style="stroke: #898781;stroke-width: 1.2000000000000002;stroke-dasharray: ;" transform="matrix(1.0, 0.0, 0.0, 1.0, 0.0, 0.0)"><path d="M 7.399999999999999 -0.1000000000000002 L 7.649999999999999 -0.35" style="vector-effect: non-scaling-stroke;fill:none;" /></g><g style="stroke: #898781;stroke-width: 1.2000000000000002;stroke-dasharray: ;" transform="matrix(1.0, 0.0, 0.0, 1.0, 0.0, 0.0)"><path d="M 7.399999999999999 0.1499999999999998 L 7.899999999999999 -0.35" style="vector-effect: non-scaling-stroke;fill:none;" /></g><g style="stroke: #898781;stroke-width: 1.2000000000000002;stroke-dasharray: ;" transform="matrix(1.0, 0.0, 0.0, 1.0, 0.0, 0.0)"><path d="M 7.449999999999998 0.35 L 8.149999999999999 -0.35" style="vector-effect: non-scaling-stroke;fill:none;" /></g><g style="stroke: #898781;stroke-width: 1.2000000000000002;stroke-dasharray: ;" transform="matrix(1.0, 0.0, 0.0, 1.0, 0.0, 0.0)"><path d="M 7.699999999999998 0.35 L 8.399999999999999 -0.35" style="vector-effect: non-scaling-stroke;fill:none;" /></g><g style="stroke: #898781;stroke-width: 1.2000000000000002;stroke-dasharray: ;" transform="matrix(1.0, 0.0, 0.0, 1.0, 0.0, 0.0)"><path d="M 7.949999999999998 0.35 L 8.649999999999999 -0.35" style="vector-effect: non-scaling-stroke;fill:none;" /></g><g style="stroke: #898781;stroke-width: 1.2000000000000002;stroke-dasharray: ;" transform="matrix(1.0, 0.0, 0.0, 1.0, 0.0, 0.0)"><path d="M 8.2 0.35 L 8.899999999999999 -0.35" style="vector-effect: non-scaling-stroke;fill:none;" /></g><g style="stroke: #898781;stroke-width: 1.2000000000000002;stroke-dasharray: ;" transform="matrix(1.0, 0.0, 0.0, 1.0, 0.0, 0.0)"><path d="M 8.45 0.35 L 9.149999999999999 -0.35" style="vector-effect: non-scaling-stroke;fill:none;" /></g><g style="stroke: #898781;stroke-width: 1.2000000000000002;stroke-dasharray: ;" transform="matrix(1.0, 0.0, 0.0, 1.0, 0.0, 0.0)"><path d="M 8.7 0.35 L 9.399999999999999 -0.35" style="vector-effect: non-scaling-stroke;fill:none;" /></g><g style="stroke: #898781;stroke-width: 1.2000000000000002;stroke-dasharray: ;" transform="matrix(1.0, 0.0, 0.0, 1.0, 0.0, 0.0)"><path d="M 8.95 0.35 L 9.649999999999999 -0.35" style="vector-effect: non-scaling-stroke;fill:none;" /></g><g style="stroke: #898781;stroke-width: 1.2000000000000002;stroke-dasharray: ;" transform="matrix(1.0, 0.0, 0.0, 1.0, 0.0, 0.0)"><path d="M 9.2 0.35 L 9.899999999999999 -0.35" style="vector-effect: non-scaling-stroke;fill:none;" /></g><g style="stroke: #898781;stroke-width: 1.2000000000000002;stroke-dasharray: ;" transform="matrix(1.0, 0.0, 0.0, 1.0, 0.0, 0.0)"><path d="M 9.45 0.35 L 10.149999999999999 -0.35" style="vector-effect: non-scaling-stroke;fill:none;" /></g><g style="stroke: #898781;stroke-width: 1.2000000000000002;stroke-dasharray: ;" transform="matrix(1.0, 0.0, 0.0, 1.0, 0.0, 0.0)"><path d="M 9.7 0.35 L 10.399999999999999 -0.35" style="vector-effect: non-scaling-stroke;fill:none;" /></g><g style="stroke: #898781;stroke-width: 1.2000000000000002;stroke-dasharray: ;" transform="matrix(1.0, 0.0, 0.0, 1.0, 0.0, 0.0)"><path d="M 9.95 0.35 L 10.399999999999999 -0.09999999999999998" style="vector-effect: non-scaling-stroke;fill:none;" /></g><g style="stroke: #898781;stroke-width: 1.2000000000000002;stroke-dasharray: ;" transform="matrix(1.0, 0.0, 0.0, 1.0, 0.0, 0.0)"><path d="M 10.2 0.35 L 10.399999999999999 0.15000000000000002" style="vector-effect: non-scaling-stroke;fill:none;" /></g><g style="fill: #ffffff;stroke: #52514e;stroke-width: 1.2000000000000002;" transform="matrix(1.0, 0.0, 0.0, 1.0, 0.7999999999999998, 1.25)"><path d="M 0.0 0.0 L 3.0 0.0 L 3.0 0.7 L 0.0 0.7 L 0.0 0.0 Z" style="vector-effect: non-scaling-stroke;" /></g><g transform="matrix(1.0, 0.0, 0.0, 1.0, 2.3, 1.6)"><g><g style="fill: #0b0b0b;stroke: black;stroke-width: 0.0;" transform="matrix(1.0, 0.0, 0.0, 1.0, 0.0, 0.0)"><text style="text-align:center; text-anchor:middle; dominant-baseline:middle;&#10;                      font-family:sans-serif; font-weight: bold;&#10;                      font-size:0.27px;&#10;                      vector-effect: non-scaling-stroke;" transform="translate(-5e-05, 0)">CLICK</text></g><g /></g></g><g style="fill: #f3f2ee;stroke: #898781;stroke-width: 1.2000000000000002;" transform="matrix(1.0, 0.0, 0.0, 1.0, 4.1, 1.25)"><path d="M 0.0 0.0 L 3.0 0.0 L 3.0 0.7 L 0.0 0.7 L 0.0 0.0 Z" style="vector-effect: non-scaling-stroke;" /></g><g style="stroke: #898781;stroke-width: 1.2000000000000002;stroke-dasharray: ;" transform="matrix(1.0, 0.0, 0.0, 1.0, 0.0, 0.0)"><path d="M 4.1 1.5 L 4.35 1.25" style="vector-effect: non-scaling-stroke;fill:none;" /></g><g style="stroke: #898781;stroke-width: 1.2000000000000002;stroke-dasharray: ;" transform="matrix(1.0, 0.0, 0.0, 1.0, 0.0, 0.0)"><path d="M 4.1 1.75 L 4.6 1.25" style="vector-effect: non-scaling-stroke;fill:none;" /></g><g style="stroke: #898781;stroke-width: 1.2000000000000002;stroke-dasharray: ;" transform="matrix(1.0, 0.0, 0.0, 1.0, 0.0, 0.0)"><path d="M 4.1499999999999995 1.9500000000000002 L 4.85 1.25" style="vector-effect: non-scaling-stroke;fill:none;" /></g><g style="stroke: #898781;stroke-width: 1.2000000000000002;stroke-dasharray: ;" transform="matrix(1.0, 0.0, 0.0, 1.0, 0.0, 0.0)"><path d="M 4.3999999999999995 1.9500000000000002 L 5.1 1.25" style="vector-effect: non-scaling-stroke;fill:none;" /></g><g style="stroke: #898781;stroke-width: 1.2000000000000002;stroke-dasharray: ;" transform="matrix(1.0, 0.0, 0.0, 1.0, 0.0, 0.0)"><path d="M 4.6499999999999995 1.9500000000000002 L 5.35 1.25" style="vector-effect: non-scaling-stroke;fill:none;" /></g><g style="stroke: #898781;stroke-width: 1.2000000000000002;stroke-dasharray: ;" transform="matrix(1.0, 0.0, 0.0, 1.0, 0.0, 0.0)"><path d="M 4.8999999999999995 1.9500000000000002 L 5.6 1.25" style="vector-effect: non-scaling-stroke;fill:none;" /></g><g style="stroke: #898781;stroke-width: 1.2000000000000002;stroke-dasharray: ;" transform="matrix(1.0, 0.0, 0.0, 1.0, 0.0, 0.0)"><path d="M 5.1499999999999995 1.9500000000000002 L 5.85 1.25" style="vector-effect: non-scaling-stroke;fill:none;" /></g><g style="stroke: #898781;stroke-width: 1.2000000000000002;stroke-dasharray: ;" transform="matrix(1.0, 0.0, 0.0, 1.0, 0.0, 0.0)"><path d="M 5.3999999999999995 1.9500000000000002 L 6.1 1.25" style="vector-effect: non-scaling-stroke;fill:none;" /></g><g style="stroke: #898781;stroke-width: 1.2000000000000002;stroke-dasharray: ;" transform="matrix(1.0, 0.0, 0.0, 1.0, 0.0, 0.0)"><path d="M 5.6499999999999995 1.9500000000000002 L 6.35 1.25" style="vector-effect: non-scaling-stroke;fill:none;" /></g><g style="stroke: #898781;stroke-width: 1.2000000000000002;stroke-dasharray: ;" transform="matrix(1.0, 0.0, 0.0, 1.0, 0.0, 0.0)"><path d="M 5.8999999999999995 1.9500000000000002 L 6.6 1.25" style="vector-effect: non-scaling-stroke;fill:none;" /></g><g style="stroke: #898781;stroke-width: 1.2000000000000002;stroke-dasharray: ;" transform="matrix(1.0, 0.0, 0.0, 1.0, 0.0, 0.0)"><path d="M 6.1499999999999995 1.9500000000000002 L 6.85 1.25" style="vector-effect: non-scaling-stroke;fill:none;" /></g><g style="stroke: #898781;stroke-width: 1.2000000000000002;stroke-dasharray: ;" transform="matrix(1.0, 0.0, 0.0, 1.0, 0.0, 0.0)"><path d="M 6.3999999999999995 1.9500000000000002 L 7.1 1.25" style="vector-effect: non-scaling-stroke;fill:none;" /></g><g style="stroke: #898781;stroke-width: 1.2000000000000002;stroke-dasharray: ;" transform="matrix(1.0, 0.0, 0.0, 1.0, 0.0, 0.0)"><path d="M 6.6499999999999995 1.9500000000000002 L 7.1 1.5" style="vector-effect: non-scaling-stroke;fill:none;" /></g><g style="stroke: #898781;stroke-width: 1.2000000000000002;stroke-dasharray: ;" transform="matrix(1.0, 0.0, 0.0, 1.0, 0.0, 0.0)"><path d="M 6.8999999999999995 1.9500000000000002 L 7.1 1.75" style="vector-effect: non-scaling-stroke;fill:none;" /></g><g style="fill: #82d3b6;stroke: #52514e;stroke-width: 1.2000000000000002;" transform="matrix(1.0, 0.0, 0.0, 1.0, 7.399999999999999, 1.25)"><path d="M 0.0 0.0 L 3.0 0.0 L 3.0 0.7 L 0.0 0.7 L 0.0 0.0 Z" style="vector-effect: non-scaling-stroke;" /></g><g transform="matrix(1.0, 0.0, 0.0, 1.0, 8.899999999999999, 1.6)"><g><g style="fill: #0b0b0b;stroke: black;stroke-width: 0.0;" transform="matrix(1.0, 0.0, 0.0, 1.0, 0.0, 0.0)"><text style="text-align:center; text-anchor:middle; dominant-baseline:middle;&#10;                      font-family:sans-serif; font-weight: bold;&#10;                      font-size:0.27px;&#10;                      vector-effect: non-scaling-stroke;" transform="translate(-5e-05, 0)">SELECT</text></g><g /></g></g><g transform="matrix(1.0, 0.0, 0.0, 1.0, 8.899999999999999, 2.22)"><g><g style="fill: #52514e;stroke: black;stroke-width: 0.0;" transform="matrix(1.0, 0.0, 0.0, 1.0, 0.0, 0.0)"><text style="text-align:center; text-anchor:middle; dominant-baseline:middle;&#10;                      font-family:sans-serif; font-weight: bold;&#10;                      font-size:0.24px;&#10;                      vector-effect: non-scaling-stroke;" transform="translate(-5e-05, 0)">▲ the rule</text></g><g /></g></g><g style="fill: #82d3b6;stroke: #52514e;stroke-width: 1.2000000000000002;" transform="matrix(1.0, 0.0, 0.0, 1.0, 0.7999999999999998, 2.85)"><path d="M 0.0 0.0 L 3.0 0.0 L 3.0 0.7 L 0.0 0.7 L 0.0 0.0 Z" style="vector-effect: non-scaling-stroke;" /></g><g transform="matrix(1.0, 0.0, 0.0, 1.0, 2.3, 3.2)"><g><g style="fill: #0b0b0b;stroke: black;stroke-width: 0.0;" transform="matrix(1.0, 0.0, 0.0, 1.0, 0.0, 0.0)"><text style="text-align:center; text-anchor:middle; dominant-baseline:middle;&#10;                      font-family:sans-serif; font-weight: bold;&#10;                      font-size:0.27px;&#10;                      vector-effect: non-scaling-stroke;" transform="translate(-5e-05, 0)">CLICK</text></g><g /></g></g><g transform="matrix(1.0, 0.0, 0.0, 1.0, 2.3, 3.8200000000000003)"><g><g style="fill: #52514e;stroke: black;stroke-width: 0.0;" transform="matrix(1.0, 0.0, 0.0, 1.0, 0.0, 0.0)"><text style="text-align:center; text-anchor:middle; dominant-baseline:middle;&#10;                      font-family:sans-serif; font-weight: bold;&#10;                      font-size:0.24px;&#10;                      vector-effect: non-scaling-stroke;" transform="translate(-5e-05, 0)">▲ the rule</text></g><g /></g></g><g style="fill: #f3f2ee;stroke: #898781;stroke-width: 1.2000000000000002;" transform="matrix(1.0, 0.0, 0.0, 1.0, 4.1, 2.85)"><path d="M 0.0 0.0 L 3.0 0.0 L 3.0 0.7 L 0.0 0.7 L 0.0 0.0 Z" style="vector-effect: non-scaling-stroke;" /></g><g style="stroke: #898781;stroke-width: 1.2000000000000002;stroke-dasharray: ;" transform="matrix(1.0, 0.0, 0.0, 1.0, 0.0, 0.0)"><path d="M 4.1 3.1 L 4.35 2.85" style="vector-effect: non-scaling-stroke;fill:none;" /></g><g style="stroke: #898781;stroke-width: 1.2000000000000002;stroke-dasharray: ;" transform="matrix(1.0, 0.0, 0.0, 1.0, 0.0, 0.0)"><path d="M 4.1 3.35 L 4.6 2.85" style="vector-effect: non-scaling-stroke;fill:none;" /></g><g style="stroke: #898781;stroke-width: 1.2000000000000002;stroke-dasharray: ;" transform="matrix(1.0, 0.0, 0.0, 1.0, 0.0, 0.0)"><path d="M 4.1499999999999995 3.5500000000000003 L 4.85 2.85" style="vector-effect: non-scaling-stroke;fill:none;" /></g><g style="stroke: #898781;stroke-width: 1.2000000000000002;stroke-dasharray: ;" transform="matrix(1.0, 0.0, 0.0, 1.0, 0.0, 0.0)"><path d="M 4.3999999999999995 3.5500000000000003 L 5.1 2.85" style="vector-effect: non-scaling-stroke;fill:none;" /></g><g style="stroke: #898781;stroke-width: 1.2000000000000002;stroke-dasharray: ;" transform="matrix(1.0, 0.0, 0.0, 1.0, 0.0, 0.0)"><path d="M 4.6499999999999995 3.5500000000000003 L 5.35 2.85" style="vector-effect: non-scaling-stroke;fill:none;" /></g><g style="stroke: #898781;stroke-width: 1.2000000000000002;stroke-dasharray: ;" transform="matrix(1.0, 0.0, 0.0, 1.0, 0.0, 0.0)"><path d="M 4.8999999999999995 3.5500000000000003 L 5.6 2.85" style="vector-effect: non-scaling-stroke;fill:none;" /></g><g style="stroke: #898781;stroke-width: 1.2000000000000002;stroke-dasharray: ;" transform="matrix(1.0, 0.0, 0.0, 1.0, 0.0, 0.0)"><path d="M 5.1499999999999995 3.5500000000000003 L 5.85 2.85" style="vector-effect: non-scaling-stroke;fill:none;" /></g><g style="stroke: #898781;stroke-width: 1.2000000000000002;stroke-dasharray: ;" transform="matrix(1.0, 0.0, 0.0, 1.0, 0.0, 0.0)"><path d="M 5.3999999999999995 3.5500000000000003 L 6.1 2.85" style="vector-effect: non-scaling-stroke;fill:none;" /></g><g style="stroke: #898781;stroke-width: 1.2000000000000002;stroke-dasharray: ;" transform="matrix(1.0, 0.0, 0.0, 1.0, 0.0, 0.0)"><path d="M 5.6499999999999995 3.5500000000000003 L 6.35 2.85" style="vector-effect: non-scaling-stroke;fill:none;" /></g><g style="stroke: #898781;stroke-width: 1.2000000000000002;stroke-dasharray: ;" transform="matrix(1.0, 0.0, 0.0, 1.0, 0.0, 0.0)"><path d="M 5.8999999999999995 3.5500000000000003 L 6.6 2.85" style="vector-effect: non-scaling-stroke;fill:none;" /></g><g style="stroke: #898781;stroke-width: 1.2000000000000002;stroke-dasharray: ;" transform="matrix(1.0, 0.0, 0.0, 1.0, 0.0, 0.0)"><path d="M 6.1499999999999995 3.5500000000000003 L 6.85 2.85" style="vector-effect: non-scaling-stroke;fill:none;" /></g><g style="stroke: #898781;stroke-width: 1.2000000000000002;stroke-dasharray: ;" transform="matrix(1.0, 0.0, 0.0, 1.0, 0.0, 0.0)"><path d="M 6.3999999999999995 3.5500000000000003 L 7.1 2.85" style="vector-effect: non-scaling-stroke;fill:none;" /></g><g style="stroke: #898781;stroke-width: 1.2000000000000002;stroke-dasharray: ;" transform="matrix(1.0, 0.0, 0.0, 1.0, 0.0, 0.0)"><path d="M 6.6499999999999995 3.5500000000000003 L 7.1 3.1" style="vector-effect: non-scaling-stroke;fill:none;" /></g><g style="stroke: #898781;stroke-width: 1.2000000000000002;stroke-dasharray: ;" transform="matrix(1.0, 0.0, 0.0, 1.0, 0.0, 0.0)"><path d="M 6.8999999999999995 3.5500000000000003 L 7.1 3.35" style="vector-effect: non-scaling-stroke;fill:none;" /></g><g style="fill: #f3f2ee;stroke: #898781;stroke-width: 1.2000000000000002;" transform="matrix(1.0, 0.0, 0.0, 1.0, 7.399999999999999, 2.85)"><path d="M 0.0 0.0 L 3.0 0.0 L 3.0 0.7 L 0.0 0.7 L 0.0 0.0 Z" style="vector-effect: non-scaling-stroke;" /></g><g style="stroke: #898781;stroke-width: 1.2000000000000002;stroke-dasharray: ;" transform="matrix(1.0, 0.0, 0.0, 1.0, 0.0, 0.0)"><path d="M 7.399999999999999 3.1 L 7.649999999999999 2.85" style="vector-effect: non-scaling-stroke;fill:none;" /></g><g style="stroke: #898781;stroke-width: 1.2000000000000002;stroke-dasharray: ;" transform="matrix(1.0, 0.0, 0.0, 1.0, 0.0, 0.0)"><path d="M 7.399999999999999 3.35 L 7.899999999999999 2.85" style="vector-effect: non-scaling-stroke;fill:none;" /></g><g style="stroke: #898781;stroke-width: 1.2000000000000002;stroke-dasharray: ;" transform="matrix(1.0, 0.0, 0.0, 1.0, 0.0, 0.0)"><path d="M 7.449999999999998 3.5500000000000003 L 8.149999999999999 2.85" style="vector-effect: non-scaling-stroke;fill:none;" /></g><g style="stroke: #898781;stroke-width: 1.2000000000000002;stroke-dasharray: ;" transform="matrix(1.0, 0.0, 0.0, 1.0, 0.0, 0.0)"><path d="M 7.699999999999998 3.5500000000000003 L 8.399999999999999 2.85" style="vector-effect: non-scaling-stroke;fill:none;" /></g><g style="stroke: #898781;stroke-width: 1.2000000000000002;stroke-dasharray: ;" transform="matrix(1.0, 0.0, 0.0, 1.0, 0.0, 0.0)"><path d="M 7.949999999999998 3.5500000000000003 L 8.649999999999999 2.85" style="vector-effect: non-scaling-stroke;fill:none;" /></g><g style="stroke: #898781;stroke-width: 1.2000000000000002;stroke-dasharray: ;" transform="matrix(1.0, 0.0, 0.0, 1.0, 0.0, 0.0)"><path d="M 8.2 3.5500000000000003 L 8.899999999999999 2.85" style="vector-effect: non-scaling-stroke;fill:none;" /></g><g style="stroke: #898781;stroke-width: 1.2000000000000002;stroke-dasharray: ;" transform="matrix(1.0, 0.0, 0.0, 1.0, 0.0, 0.0)"><path d="M 8.45 3.5500000000000003 L 9.149999999999999 2.85" style="vector-effect: non-scaling-stroke;fill:none;" /></g><g style="stroke: #898781;stroke-width: 1.2000000000000002;stroke-dasharray: ;" transform="matrix(1.0, 0.0, 0.0, 1.0, 0.0, 0.0)"><path d="M 8.7 3.5500000000000003 L 9.399999999999999 2.85" style="vector-effect: non-scaling-stroke;fill:none;" /></g><g style="stroke: #898781;stroke-width: 1.2000000000000002;stroke-dasharray: ;" transform="matrix(1.0, 0.0, 0.0, 1.0, 0.0, 0.0)"><path d="M 8.95 3.5500000000000003 L 9.649999999999999 2.85" style="vector-effect: non-scaling-stroke;fill:none;" /></g><g style="stroke: #898781;stroke-width: 1.2000000000000002;stroke-dasharray: ;" transform="matrix(1.0, 0.0, 0.0, 1.0, 0.0, 0.0)"><path d="M 9.2 3.5500000000000003 L 9.899999999999999 2.85" style="vector-effect: non-scaling-stroke;fill:none;" /></g><g style="stroke: #898781;stroke-width: 1.2000000000000002;stroke-dasharray: ;" transform="matrix(1.0, 0.0, 0.0, 1.0, 0.0, 0.0)"><path d="M 9.45 3.5500000000000003 L 10.149999999999999 2.85" style="vector-effect: non-scaling-stroke;fill:none;" /></g><g style="stroke: #898781;stroke-width: 1.2000000000000002;stroke-dasharray: ;" transform="matrix(1.0, 0.0, 0.0, 1.0, 0.0, 0.0)"><path d="M 9.7 3.5500000000000003 L 10.399999999999999 2.85" style="vector-effect: non-scaling-stroke;fill:none;" /></g><g style="stroke: #898781;stroke-width: 1.2000000000000002;stroke-dasharray: ;" transform="matrix(1.0, 0.0, 0.0, 1.0, 0.0, 0.0)"><path d="M 9.95 3.5500000000000003 L 10.399999999999999 3.1" style="vector-effect: non-scaling-stroke;fill:none;" /></g><g style="stroke: #898781;stroke-width: 1.2000000000000002;stroke-dasharray: ;" transform="matrix(1.0, 0.0, 0.0, 1.0, 0.0, 0.0)"><path d="M 10.2 3.5500000000000003 L 10.399999999999999 3.35" style="vector-effect: non-scaling-stroke;fill:none;" /></g><g transform="matrix(1.0, 0.0, 0.0, 1.0, 5.6, 4.45)"><g><g style="fill: #52514e;stroke: black;stroke-width: 0.0;" transform="matrix(1.0, 0.0, 0.0, 1.0, 0.0, 0.0)"><text style="text-align:center; text-anchor:middle; dominant-baseline:middle;&#10;                      font-family:sans-serif; font-weight: bold;&#10;                      font-size:0.3px;&#10;                      vector-effect: non-scaling-stroke;" transform="translate(-5e-05, 0)">the rarest action offered: right on 3 of 3</text></g><g /></g></g><g transform="matrix(1.0, 0.0, 0.0, 1.0, 18.799999999999997, -1.6)"><g><g style="fill: #0b0b0b;stroke: black;stroke-width: 0.0;" transform="matrix(1.0, 0.0, 0.0, 1.0, 0.0, 0.0)"><text style="text-align:center; text-anchor:middle; dominant-baseline:middle;&#10;                      font-family:sans-serif; font-weight: bold;&#10;                      font-size:0.34px;&#10;                      vector-effect: non-scaling-stroke;" transform="translate(-5e-05, 0)">operations="all"</text></g><g /></g></g><g style="fill: #ffffff;stroke: #52514e;stroke-width: 1.2000000000000002;" transform="matrix(1.0, 0.0, 0.0, 1.0, 14.0, -0.35)"><path d="M 0.0 0.0 L 3.0 0.0 L 3.0 0.7 L 0.0 0.7 L 0.0 0.0 Z" style="vector-effect: non-scaling-stroke;" /></g><g transform="matrix(1.0, 0.0, 0.0, 1.0, 15.5, 0.0)"><g><g style="fill: #0b0b0b;stroke: black;stroke-width: 0.0;" transform="matrix(1.0, 0.0, 0.0, 1.0, 0.0, 0.0)"><text style="text-align:center; text-anchor:middle; dominant-baseline:middle;&#10;                      font-family:sans-serif; font-weight: bold;&#10;                      font-size:0.27px;&#10;                      vector-effect: non-scaling-stroke;" transform="translate(-5e-05, 0)">CLICK</text></g><g /></g></g><g style="fill: #82d3b6;stroke: #52514e;stroke-width: 1.2000000000000002;" transform="matrix(1.0, 0.0, 0.0, 1.0, 17.3, -0.35)"><path d="M 0.0 0.0 L 3.0 0.0 L 3.0 0.7 L 0.0 0.7 L 0.0 0.0 Z" style="vector-effect: non-scaling-stroke;" /></g><g transform="matrix(1.0, 0.0, 0.0, 1.0, 18.8, 0.0)"><g><g style="fill: #0b0b0b;stroke: black;stroke-width: 0.0;" transform="matrix(1.0, 0.0, 0.0, 1.0, 0.0, 0.0)"><text style="text-align:center; text-anchor:middle; dominant-baseline:middle;&#10;                      font-family:sans-serif; font-weight: bold;&#10;                      font-size:0.27px;&#10;                      vector-effect: non-scaling-stroke;" transform="translate(-5e-05, 0)">TYPE_TEXT</text></g><g /></g></g><g style="fill: #ffffff;stroke: #52514e;stroke-width: 1.2000000000000002;" transform="matrix(1.0, 0.0, 0.0, 1.0, 20.6, -0.35)"><path d="M 0.0 0.0 L 3.0 0.0 L 3.0 0.7 L 0.0 0.7 L 0.0 0.0 Z" style="vector-effect: non-scaling-stroke;" /></g><g transform="matrix(1.0, 0.0, 0.0, 1.0, 22.1, 0.0)"><g><g style="fill: #0b0b0b;stroke: black;stroke-width: 0.0;" transform="matrix(1.0, 0.0, 0.0, 1.0, 0.0, 0.0)"><text style="text-align:center; text-anchor:middle; dominant-baseline:middle;&#10;                      font-family:sans-serif; font-weight: bold;&#10;                      font-size:0.27px;&#10;                      vector-effect: non-scaling-stroke;" transform="translate(-5e-05, 0)">SELECT</text></g><g /></g></g><g transform="matrix(1.0, 0.0, 0.0, 1.0, 22.1, 0.62)"><g><g style="fill: #eb6834;stroke: black;stroke-width: 0.0;" transform="matrix(1.0, 0.0, 0.0, 1.0, 0.0, 0.0)"><text style="text-align:center; text-anchor:middle; dominant-baseline:middle;&#10;                      font-family:sans-serif; font-weight: bold;&#10;                      font-size:0.24px;&#10;                      vector-effect: non-scaling-stroke;" transform="translate(-5e-05, 0)">▲ the rule</text></g><g /></g></g><g style="fill: #ffffff;stroke: #52514e;stroke-width: 1.2000000000000002;" transform="matrix(1.0, 0.0, 0.0, 1.0, 14.0, 1.25)"><path d="M 0.0 0.0 L 3.0 0.0 L 3.0 0.7 L 0.0 0.7 L 0.0 0.0 Z" style="vector-effect: non-scaling-stroke;" /></g><g transform="matrix(1.0, 0.0, 0.0, 1.0, 15.5, 1.6)"><g><g style="fill: #0b0b0b;stroke: black;stroke-width: 0.0;" transform="matrix(1.0, 0.0, 0.0, 1.0, 0.0, 0.0)"><text style="text-align:center; text-anchor:middle; dominant-baseline:middle;&#10;                      font-family:sans-serif; font-weight: bold;&#10;                      font-size:0.27px;&#10;                      vector-effect: non-scaling-stroke;" transform="translate(-5e-05, 0)">CLICK</text></g><g /></g></g><g style="fill: #ffffff;stroke: #52514e;stroke-width: 1.2000000000000002;" transform="matrix(1.0, 0.0, 0.0, 1.0, 17.3, 1.25)"><path d="M 0.0 0.0 L 3.0 0.0 L 3.0 0.7 L 0.0 0.7 L 0.0 0.0 Z" style="vector-effect: non-scaling-stroke;" /></g><g transform="matrix(1.0, 0.0, 0.0, 1.0, 18.8, 1.6)"><g><g style="fill: #0b0b0b;stroke: black;stroke-width: 0.0;" transform="matrix(1.0, 0.0, 0.0, 1.0, 0.0, 0.0)"><text style="text-align:center; text-anchor:middle; dominant-baseline:middle;&#10;                      font-family:sans-serif; font-weight: bold;&#10;                      font-size:0.27px;&#10;                      vector-effect: non-scaling-stroke;" transform="translate(-5e-05, 0)">TYPE_TEXT</text></g><g /></g></g><g style="fill: #82d3b6;stroke: #52514e;stroke-width: 1.2000000000000002;" transform="matrix(1.0, 0.0, 0.0, 1.0, 20.6, 1.25)"><path d="M 0.0 0.0 L 3.0 0.0 L 3.0 0.7 L 0.0 0.7 L 0.0 0.0 Z" style="vector-effect: non-scaling-stroke;" /></g><g transform="matrix(1.0, 0.0, 0.0, 1.0, 22.1, 1.6)"><g><g style="fill: #0b0b0b;stroke: black;stroke-width: 0.0;" transform="matrix(1.0, 0.0, 0.0, 1.0, 0.0, 0.0)"><text style="text-align:center; text-anchor:middle; dominant-baseline:middle;&#10;                      font-family:sans-serif; font-weight: bold;&#10;                      font-size:0.27px;&#10;                      vector-effect: non-scaling-stroke;" transform="translate(-5e-05, 0)">SELECT</text></g><g /></g></g><g transform="matrix(1.0, 0.0, 0.0, 1.0, 22.1, 2.22)"><g><g style="fill: #52514e;stroke: black;stroke-width: 0.0;" transform="matrix(1.0, 0.0, 0.0, 1.0, 0.0, 0.0)"><text style="text-align:center; text-anchor:middle; dominant-baseline:middle;&#10;                      font-family:sans-serif; font-weight: bold;&#10;                      font-size:0.24px;&#10;                      vector-effect: non-scaling-stroke;" transform="translate(-5e-05, 0)">▲ the rule</text></g><g /></g></g><g style="fill: #82d3b6;stroke: #52514e;stroke-width: 1.2000000000000002;" transform="matrix(1.0, 0.0, 0.0, 1.0, 14.0, 2.85)"><path d="M 0.0 0.0 L 3.0 0.0 L 3.0 0.7 L 0.0 0.7 L 0.0 0.0 Z" style="vector-effect: non-scaling-stroke;" /></g><g transform="matrix(1.0, 0.0, 0.0, 1.0, 15.5, 3.2)"><g><g style="fill: #0b0b0b;stroke: black;stroke-width: 0.0;" transform="matrix(1.0, 0.0, 0.0, 1.0, 0.0, 0.0)"><text style="text-align:center; text-anchor:middle; dominant-baseline:middle;&#10;                      font-family:sans-serif; font-weight: bold;&#10;                      font-size:0.27px;&#10;                      vector-effect: non-scaling-stroke;" transform="translate(-5e-05, 0)">CLICK</text></g><g /></g></g><g style="fill: #ffffff;stroke: #52514e;stroke-width: 1.2000000000000002;" transform="matrix(1.0, 0.0, 0.0, 1.0, 17.3, 2.85)"><path d="M 0.0 0.0 L 3.0 0.0 L 3.0 0.7 L 0.0 0.7 L 0.0 0.0 Z" style="vector-effect: non-scaling-stroke;" /></g><g transform="matrix(1.0, 0.0, 0.0, 1.0, 18.8, 3.2)"><g><g style="fill: #0b0b0b;stroke: black;stroke-width: 0.0;" transform="matrix(1.0, 0.0, 0.0, 1.0, 0.0, 0.0)"><text style="text-align:center; text-anchor:middle; dominant-baseline:middle;&#10;                      font-family:sans-serif; font-weight: bold;&#10;                      font-size:0.27px;&#10;                      vector-effect: non-scaling-stroke;" transform="translate(-5e-05, 0)">TYPE_TEXT</text></g><g /></g></g><g style="fill: #ffffff;stroke: #52514e;stroke-width: 1.2000000000000002;" transform="matrix(1.0, 0.0, 0.0, 1.0, 20.6, 2.85)"><path d="M 0.0 0.0 L 3.0 0.0 L 3.0 0.7 L 0.0 0.7 L 0.0 0.0 Z" style="vector-effect: non-scaling-stroke;" /></g><g transform="matrix(1.0, 0.0, 0.0, 1.0, 22.1, 3.2)"><g><g style="fill: #0b0b0b;stroke: black;stroke-width: 0.0;" transform="matrix(1.0, 0.0, 0.0, 1.0, 0.0, 0.0)"><text style="text-align:center; text-anchor:middle; dominant-baseline:middle;&#10;                      font-family:sans-serif; font-weight: bold;&#10;                      font-size:0.27px;&#10;                      vector-effect: non-scaling-stroke;" transform="translate(-5e-05, 0)">SELECT</text></g><g /></g></g><g transform="matrix(1.0, 0.0, 0.0, 1.0, 22.1, 3.8200000000000003)"><g><g style="fill: #eb6834;stroke: black;stroke-width: 0.0;" transform="matrix(1.0, 0.0, 0.0, 1.0, 0.0, 0.0)"><text style="text-align:center; text-anchor:middle; dominant-baseline:middle;&#10;                      font-family:sans-serif; font-weight: bold;&#10;                      font-size:0.24px;&#10;                      vector-effect: non-scaling-stroke;" transform="translate(-5e-05, 0)">▲ the rule</text></g><g /></g></g><g transform="matrix(1.0, 0.0, 0.0, 1.0, 18.799999999999997, 4.45)"><g><g style="fill: #52514e;stroke: black;stroke-width: 0.0;" transform="matrix(1.0, 0.0, 0.0, 1.0, 0.0, 0.0)"><text style="text-align:center; text-anchor:middle; dominant-baseline:middle;&#10;                      font-family:sans-serif; font-weight: bold;&#10;                      font-size:0.3px;&#10;                      vector-effect: non-scaling-stroke;" transform="translate(-5e-05, 0)">the rarest action offered: right on 1 of 3</text></g><g /></g></g><g transform="matrix(1.0, 0.0, 0.0, 1.0, -2.8908, 0.0)"><g><g style="fill: #52514e;stroke: black;stroke-width: 0.0;" transform="matrix(1.0, 0.0, 0.0, 1.0, 0.0, 0.0)"><text style="text-align:center; text-anchor:middle; dominant-baseline:middle;&#10;                      font-family:sans-serif; font-weight: bold;&#10;                      font-size:0.28px;&#10;                      vector-effect: non-scaling-stroke;" transform="translate(-5e-05, 0)">type 'las vegas' into Where to?</text></g><g /></g></g><g transform="matrix(1.0, 0.0, 0.0, 1.0, -3.3248, 1.6)"><g><g style="fill: #52514e;stroke: black;stroke-width: 0.0;" transform="matrix(1.0, 0.0, 0.0, 1.0, 0.0, 0.0)"><text style="text-align:center; text-anchor:middle; dominant-baseline:middle;&#10;                      font-family:sans-serif; font-weight: bold;&#10;                      font-size:0.28px;&#10;                      vector-effect: non-scaling-stroke;" transform="translate(-5e-05, 0)">select 4 Guests for How many guests?</text></g><g /></g></g><g transform="matrix(1.0, 0.0, 0.0, 1.0, -1.2416, 3.2)"><g><g style="fill: #52514e;stroke: black;stroke-width: 0.0;" transform="matrix(1.0, 0.0, 0.0, 1.0, 0.0, 0.0)"><text style="text-align:center; text-anchor:middle; dominant-baseline:middle;&#10;                      font-family:sans-serif; font-weight: bold;&#10;                      font-size:0.28px;&#10;                      vector-effect: non-scaling-stroke;" transform="translate(-5e-05, 0)">click Search</text></g><g /></g></g><g style="fill: #82d3b6;stroke: #52514e;stroke-width: 1.2000000000000002;" transform="matrix(1.0, 0.0, 0.0, 1.0, 1.0, 5.05)"><path d="M 0.0 0.0 L 0.5 0.0 L 0.5 0.5 L 0.0 0.5 L 0.0 0.0 Z" style="vector-effect: non-scaling-stroke;" /></g><g transform="matrix(1.0, 0.0, 0.0, 1.0, 3.51, 5.3)"><g><g style="fill: #52514e;stroke: black;stroke-width: 0.0;" transform="matrix(1.0, 0.0, 0.0, 1.0, 0.0, 0.0)"><text style="text-align:center; text-anchor:middle; dominant-baseline:middle;&#10;                      font-family:sans-serif; font-weight: bold;&#10;                      font-size:0.3px;&#10;                      vector-effect: non-scaling-stroke;" transform="translate(-5e-05, 0)">the step's operation</text></g><g /></g></g><g style="fill: #ffffff;stroke: #52514e;stroke-width: 1.2000000000000002;" transform="matrix(1.0, 0.0, 0.0, 1.0, 6.119999999999999, 5.05)"><path d="M 0.0 0.0 L 0.5 0.0 L 0.5 0.5 L 0.0 0.5 L 0.0 0.0 Z" style="vector-effect: non-scaling-stroke;" /></g><g transform="matrix(1.0, 0.0, 0.0, 1.0, 7.420999999999999, 5.3)"><g><g style="fill: #52514e;stroke: black;stroke-width: 0.0;" transform="matrix(1.0, 0.0, 0.0, 1.0, 0.0, 0.0)"><text style="text-align:center; text-anchor:middle; dominant-baseline:middle;&#10;                      font-family:sans-serif; font-weight: bold;&#10;                      font-size:0.3px;&#10;                      vector-effect: non-scaling-stroke;" transform="translate(-5e-05, 0)">offered</text></g><g /></g></g><g style="fill: #f3f2ee;stroke: #52514e;stroke-width: 1.2000000000000002;" transform="matrix(1.0, 0.0, 0.0, 1.0, 8.822, 5.05)"><path d="M 0.0 0.0 L 0.5 0.0 L 0.5 0.5 L 0.0 0.5 L 0.0 0.0 Z" style="vector-effect: non-scaling-stroke;" /></g><g style="stroke: #898781;stroke-width: 1.2000000000000002;stroke-dasharray: ;" transform="matrix(1.0, 0.0, 0.0, 1.0, 0.0, 0.0)"><path d="M 8.822 5.169999999999999 L 8.941999999999998 5.05" style="vector-effect: non-scaling-stroke;fill:none;" /></g><g style="stroke: #898781;stroke-width: 1.2000000000000002;stroke-dasharray: ;" transform="matrix(1.0, 0.0, 0.0, 1.0, 0.0, 0.0)"><path d="M 8.822 5.29 L 9.062 5.05" style="vector-effect: non-scaling-stroke;fill:none;" /></g><g style="stroke: #898781;stroke-width: 1.2000000000000002;stroke-dasharray: ;" transform="matrix(1.0, 0.0, 0.0, 1.0, 0.0, 0.0)"><path d="M 8.822 5.409999999999999 L 9.181999999999999 5.05" style="vector-effect: non-scaling-stroke;fill:none;" /></g><g style="stroke: #898781;stroke-width: 1.2000000000000002;stroke-dasharray: ;" transform="matrix(1.0, 0.0, 0.0, 1.0, 0.0, 0.0)"><path d="M 8.822 5.53 L 9.302 5.05" style="vector-effect: non-scaling-stroke;fill:none;" /></g><g style="stroke: #898781;stroke-width: 1.2000000000000002;stroke-dasharray: ;" transform="matrix(1.0, 0.0, 0.0, 1.0, 0.0, 0.0)"><path d="M 8.921999999999999 5.55 L 9.322 5.1499999999999995" style="vector-effect: non-scaling-stroke;fill:none;" /></g><g style="stroke: #898781;stroke-width: 1.2000000000000002;stroke-dasharray: ;" transform="matrix(1.0, 0.0, 0.0, 1.0, 0.0, 0.0)"><path d="M 9.042 5.55 L 9.322 5.2700000000000005" style="vector-effect: non-scaling-stroke;fill:none;" /></g><g style="stroke: #898781;stroke-width: 1.2000000000000002;stroke-dasharray: ;" transform="matrix(1.0, 0.0, 0.0, 1.0, 0.0, 0.0)"><path d="M 9.161999999999999 5.55 L 9.322 5.39" style="vector-effect: non-scaling-stroke;fill:none;" /></g><g style="stroke: #898781;stroke-width: 1.2000000000000002;stroke-dasharray: ;" transform="matrix(1.0, 0.0, 0.0, 1.0, 0.0, 0.0)"><path d="M 9.282 5.55 L 9.322 5.510000000000001" style="vector-effect: non-scaling-stroke;fill:none;" /></g><g transform="matrix(1.0, 0.0, 0.0, 1.0, 10.495, 5.3)"><g><g style="fill: #52514e;stroke: black;stroke-width: 0.0;" transform="matrix(1.0, 0.0, 0.0, 1.0, 0.0, 0.0)"><text style="text-align:center; text-anchor:middle; dominant-baseline:middle;&#10;                      font-family:sans-serif; font-weight: bold;&#10;                      font-size:0.3px;&#10;                      vector-effect: non-scaling-stroke;" transform="translate(-5e-05, 0)">not offered</text></g><g /></g></g><g transform="matrix(1.0, 0.0, 0.0, 1.0, 11.0, 6.1)"><g><g style="fill: #52514e;stroke: black;stroke-width: 0.0;" transform="matrix(1.0, 0.0, 0.0, 1.0, 0.0, 0.0)"><text style="text-align:center; text-anchor:middle; dominant-baseline:middle;&#10;                      font-family:sans-serif; font-weight: bold;&#10;                      font-size:0.28px;&#10;                      vector-effect: non-scaling-stroke;" transform="translate(-5e-05, 0)">the controls (WAIT, SCROLL_DOWN, SCROLL_UP, DONE, BLOCKED) are offered on every step, either way</text></g><g /></g></g></g></g><g /></g></g></g></g></svg>